<?xml version="1.0" standalone="no"?>
<!DOCTYPE svg PUBLIC "-//W3C//DTD SVG 20010904//EN"
 "http://www.w3.org/TR/2001/REC-SVG-20010904/DTD/svg10.dtd">
<svg version="1.0" xmlns="http://www.w3.org/2000/svg"
 width="1072.000000pt" height="1072.000000pt" viewBox="0 0 1072.000000 1072.000000"
 preserveAspectRatio="xMidYMid meet">
<g transform="translate(0.000000,1072.000000) scale(0.100000,-0.100000)"
fill="#000000" stroke="none">
<path d="M7157 9393 c-1 -1 -56 -4 -122 -7 -66 -3 -156 -9 -200 -12 -44 -4
-97 -8 -117 -8 -21 -1 -38 -3 -38 -6 0 -3 -19 -6 -43 -7 -45 -2 -122 -10 -122
-13 0 -1 -13 -3 -30 -3 -16 -1 -34 -5 -40 -8 -5 -3 -31 -5 -57 -5 -27 1 -49
-2 -50 -5 -2 -4 -21 -9 -43 -13 -22 -3 -51 -8 -65 -10 -14 -3 -42 -7 -62 -10
-21 -2 -41 -7 -45 -9 -4 -3 -24 -8 -43 -11 -19 -3 -46 -8 -60 -11 -14 -3 -36
-8 -50 -11 -14 -3 -32 -7 -40 -9 -8 -2 -15 -4 -15 -5 0 -3 -41 -11 -62 -12
-13 0 -23 -4 -23 -8 0 -3 -6 -7 -12 -8 -23 -1 -73 -13 -108 -24 -19 -7 -41
-13 -47 -15 -20 -5 -35 -9 -83 -22 -25 -7 -46 -13 -48 -12 -1 1 -16 -6 -32
-14 -17 -9 -30 -13 -30 -11 0 3 -21 -4 -46 -14 -25 -11 -50 -18 -55 -14 -5 3
-9 0 -9 -6 0 -6 -4 -9 -9 -5 -5 3 -12 1 -16 -5 -4 -6 -11 -8 -16 -5 -5 4 -9 1
-9 -4 0 -6 -3 -10 -7 -9 -11 2 -66 -13 -78 -22 -16 -11 -109 -44 -117 -42 -5
1 -8 -2 -8 -8 0 -6 -3 -9 -7 -8 -10 2 -61 -18 -95 -38 -16 -8 -28 -12 -28 -8
0 4 -9 -1 -20 -11 -11 -10 -20 -15 -20 -10 0 4 -11 0 -25 -9 -14 -9 -25 -13
-25 -9 0 5 -4 3 -8 -3 -4 -6 -33 -21 -64 -34 -32 -13 -58 -27 -58 -32 0 -4 -5
-8 -11 -8 -16 0 -82 -32 -97 -47 -7 -7 -19 -13 -25 -13 -7 0 -29 -11 -50 -25
-20 -14 -37 -22 -37 -18 0 4 -4 3 -8 -2 -4 -6 -41 -30 -82 -54 -41 -25 -77
-47 -80 -51 -3 -4 -12 -10 -20 -13 -19 -9 -52 -31 -130 -87 -34 -25 -73 -51
-86 -58 -13 -7 -24 -17 -24 -23 0 -5 -7 -9 -15 -9 -8 0 -15 -4 -15 -8 0 -5
-30 -30 -67 -58 -38 -27 -75 -56 -84 -64 -9 -8 -26 -22 -39 -30 -25 -17 -73
-56 -101 -82 -11 -10 -19 -16 -19 -13 0 2 -13 -8 -29 -23 -15 -15 -40 -36 -55
-46 -31 -22 -92 -73 -118 -98 -10 -10 -20 -18 -23 -18 -5 0 -18 -11 -77 -65
-21 -19 -38 -33 -38 -30 0 2 -10 -6 -23 -18 -21 -20 -47 -43 -153 -134 -20
-18 -41 -33 -46 -33 -5 0 -6 -4 -3 -10 3 -5 1 -10 -5 -10 -7 0 -27 -16 -46
-35 -19 -20 -34 -33 -34 -30 0 2 -22 -18 -50 -45 -27 -27 -50 -48 -50 -46 0 3
-22 -17 -50 -44 -27 -27 -50 -47 -50 -46 0 2 -35 -30 -77 -70 -42 -41 -80 -74
-85 -74 -4 0 -8 -6 -8 -13 0 -8 -12 -19 -26 -25 -14 -7 -22 -17 -19 -22 3 -6
1 -10 -5 -10 -6 0 -42 -31 -81 -70 -38 -38 -75 -70 -81 -70 -6 0 -9 -3 -5 -6
7 -8 -17 -34 -32 -34 -6 0 -10 -6 -8 -12 1 -7 -4 -12 -10 -11 -7 2 -13 -2 -13
-7 0 -15 -47 -60 -54 -53 -3 4 -6 -1 -6 -11 0 -9 -5 -14 -10 -11 -6 3 -10 1
-10 -5 0 -15 -46 -60 -54 -53 -3 4 -6 2 -6 -4 0 -6 -43 -54 -95 -107 -53 -53
-94 -96 -92 -96 2 0 -36 -40 -85 -90 -48 -49 -86 -90 -84 -90 4 0 -54 -64
-144 -157 -22 -23 -40 -44 -40 -47 0 -3 -25 -31 -55 -61 -30 -30 -52 -55 -50
-55 5 0 -71 -85 -104 -117 -13 -13 -21 -23 -17 -23 3 0 -2 -8 -12 -18 -46 -49
-92 -102 -88 -102 3 0 -5 -10 -17 -23 -26 -26 -77 -87 -115 -136 -15 -19 -35
-43 -45 -53 -9 -10 -15 -18 -12 -18 2 0 -8 -13 -23 -29 -15 -15 -34 -38 -42
-50 -8 -13 -24 -33 -35 -45 -51 -58 -63 -75 -58 -80 4 -3 2 -6 -3 -6 -6 0 -20
-13 -32 -30 -17 -23 -19 -30 -8 -30 8 0 17 9 21 19 3 11 15 23 26 26 10 4 17
10 14 15 -3 5 4 11 15 15 11 4 18 11 15 16 -4 5 -2 9 2 9 5 0 52 43 106 95 54
52 103 95 108 95 6 0 8 3 6 8 -3 4 6 16 19 27 14 11 61 55 106 98 45 42 86 77
90 77 5 0 6 5 3 10 -3 6 1 10 9 10 9 0 16 4 16 9 0 5 9 13 20 16 11 4 18 10
16 14 -3 4 4 15 15 24 10 9 19 15 19 13 0 -2 27 22 60 54 33 32 60 56 60 53 0
-2 16 12 35 31 19 20 35 34 35 31 0 -2 15 10 33 28 19 17 55 50 81 72 27 22
63 54 81 70 78 70 138 120 148 124 6 2 23 18 39 35 15 17 28 27 28 23 0 -4 11
3 25 17 13 13 41 37 62 53 21 15 45 35 53 43 33 31 65 56 73 57 5 1 15 10 23
20 7 10 14 15 14 11 0 -3 17 9 38 28 74 68 82 74 97 74 9 0 13 5 10 10 -3 6
-3 10 2 10 4 0 20 10 35 23 14 12 36 29 48 37 12 8 28 20 34 25 6 6 29 23 51
39 22 17 43 35 47 40 5 7 8 7 8 1 0 -5 5 -2 11 8 5 9 17 17 25 17 8 0 12 5 9
10 -3 6 1 10 9 10 9 0 16 5 16 10 0 6 7 10 15 10 8 0 15 5 15 10 0 6 7 10 15
10 7 0 18 6 22 13 4 7 33 30 63 51 30 22 57 43 58 48 2 4 10 8 18 8 8 0 14 5
14 10 0 6 5 10 10 10 6 0 16 5 23 10 55 47 74 61 90 66 9 3 17 10 17 16 0 6 3
9 6 5 3 -3 18 5 32 19 15 13 30 24 34 24 7 0 36 21 63 48 8 6 18 12 23 12 5 0
15 7 22 15 7 9 15 13 18 10 3 -2 10 1 16 9 15 18 254 176 266 176 6 0 10 3 10
8 0 7 46 36 63 40 4 1 19 13 34 26 15 14 30 23 34 21 4 -3 10 2 13 11 3 8 10
13 15 9 6 -3 14 3 20 12 5 10 12 17 15 16 9 -4 66 31 66 40 0 5 5 5 10 2 6 -3
13 1 16 9 3 9 10 13 15 10 5 -3 9 0 9 6 0 6 5 8 10 5 6 -3 10 -1 10 4 0 6 5
11 11 11 6 0 23 9 39 20 15 11 31 16 35 12 5 -4 5 -2 1 5 -3 7 2 14 14 18 11
3 20 11 20 16 0 6 4 8 9 5 5 -3 20 3 34 14 14 11 29 20 35 20 5 0 17 9 27 20
10 11 21 17 25 15 4 -3 13 2 20 10 7 8 16 12 21 9 5 -3 9 -1 9 4 0 9 50 37 63
34 4 -1 7 1 7 6 0 4 17 16 38 27 20 10 45 26 55 34 9 8 17 11 17 8 0 -4 8 0
18 8 9 8 21 15 26 14 5 0 12 3 15 8 3 4 31 21 61 37 30 16 63 36 73 44 9 8 17
12 17 8 0 -4 13 2 28 13 16 11 34 21 42 23 7 2 22 11 32 21 10 9 27 17 37 17
11 0 21 4 23 8 2 5 26 20 53 34 213 109 261 134 266 141 3 5 10 9 15 9 15 1
99 42 106 53 4 6 8 6 8 2 0 -5 12 0 28 10 15 11 56 32 92 48 36 15 68 32 71
38 4 5 11 7 17 3 6 -3 13 -2 17 3 3 6 27 20 53 32 26 12 67 31 92 43 25 12 47
23 50 26 3 3 10 5 15 5 6 1 42 16 80 35 39 18 72 34 75 35 3 0 31 13 63 28 32
15 59 27 61 27 2 0 25 10 52 22 27 12 51 23 54 23 9 3 61 25 116 50 30 14 57
25 60 25 3 0 30 11 60 25 30 14 59 25 64 25 6 0 18 4 28 10 36 20 162 69 162
63 0 -4 5 -2 12 5 7 7 20 12 30 12 10 0 18 4 18 8 0 5 6 9 13 10 21 1 112 37
115 45 2 4 8 4 14 1 6 -4 13 -3 17 2 5 7 136 58 176 68 6 2 23 8 38 14 16 7
33 12 38 12 5 0 17 4 27 9 28 15 56 24 69 22 6 -1 14 3 18 9 3 5 16 10 27 10
12 0 18 3 15 7 -6 5 -235 12 -240 6z"/>
<path d="M8030 9305 c-52 -18 -98 -31 -101 -29 -4 2 -9 1 -11 -3 -3 -9 -258
-95 -272 -93 -5 1 -12 -2 -15 -7 -3 -5 -31 -17 -61 -27 -30 -9 -64 -21 -75
-26 -26 -11 -119 -45 -125 -45 -3 0 -9 -3 -15 -6 -16 -10 -89 -33 -97 -31 -5
1 -8 -3 -8 -10 0 -6 -3 -8 -6 -5 -4 3 -16 0 -28 -8 -11 -8 -30 -15 -43 -15
-12 0 -25 -5 -28 -10 -4 -6 -11 -8 -16 -5 -5 4 -12 -1 -15 -9 -3 -9 -10 -14
-14 -11 -4 3 -24 -2 -44 -10 -20 -8 -37 -14 -38 -13 -2 1 -14 -5 -28 -12 -14
-8 -28 -13 -32 -12 -5 1 -8 -3 -8 -10 0 -6 -3 -9 -6 -5 -3 3 -54 -15 -112 -39
-59 -25 -111 -46 -117 -47 -5 -1 -13 -6 -16 -10 -3 -4 -16 -9 -27 -10 -12 -1
-22 -4 -22 -8 0 -4 -10 -10 -22 -14 -30 -8 -102 -38 -108 -45 -3 -3 -10 -6
-17 -7 -6 -1 -42 -16 -80 -34 -37 -17 -81 -37 -98 -44 -16 -7 -57 -26 -90 -40
-33 -15 -62 -27 -65 -27 -3 0 -13 -7 -22 -15 -10 -9 -18 -13 -18 -10 0 3 -31
-9 -69 -28 -102 -50 -285 -139 -291 -140 -3 0 -43 -21 -90 -45 -47 -24 -88
-43 -92 -42 -5 1 -8 -3 -8 -9 0 -5 -4 -7 -10 -4 -5 3 -10 1 -10 -5 0 -6 -4 -8
-10 -5 -5 3 -10 2 -10 -2 0 -9 -80 -48 -92 -45 -5 1 -8 -2 -8 -8 0 -5 -6 -10
-14 -10 -7 0 -19 -7 -26 -15 -7 -9 -15 -13 -18 -11 -3 3 -17 -3 -32 -14 -16
-11 -33 -20 -39 -20 -6 0 -11 -5 -11 -10 0 -6 -3 -9 -7 -8 -5 1 -23 -6 -40
-15 -18 -10 -33 -14 -33 -10 0 5 -5 0 -11 -10 -6 -9 -14 -15 -20 -12 -5 4 -9
1 -9 -5 0 -6 -4 -8 -10 -5 -5 3 -10 2 -10 -4 0 -5 -16 -15 -35 -22 -19 -7 -35
-16 -35 -20 0 -4 -10 -11 -21 -14 -19 -6 -107 -54 -166 -91 -13 -8 -26 -15
-30 -15 -5 0 -16 -8 -25 -16 -10 -9 -18 -12 -18 -7 0 5 -4 4 -8 -2 -4 -6 -27
-21 -52 -35 -25 -13 -47 -26 -50 -29 -6 -6 -42 -26 -85 -49 -16 -9 -32 -18
-35 -21 -3 -3 -50 -32 -105 -65 -55 -33 -102 -63 -105 -66 -3 -3 -15 -9 -27
-13 -13 -4 -23 -12 -23 -17 0 -5 -7 -9 -15 -9 -8 0 -15 -4 -15 -10 0 -5 -5
-10 -11 -10 -6 0 -30 -13 -54 -30 -24 -16 -48 -30 -54 -30 -6 0 -11 -4 -11 -9
0 -5 -13 -14 -30 -21 -16 -7 -30 -16 -30 -21 0 -5 -11 -11 -25 -15 -14 -3 -25
-9 -25 -14 0 -4 -16 -15 -35 -26 -19 -10 -35 -22 -35 -27 0 -4 -4 -6 -8 -3 -5
3 -24 -7 -43 -23 -19 -15 -52 -38 -74 -51 -22 -13 -46 -30 -53 -37 -7 -7 -16
-13 -20 -13 -4 0 -20 -11 -36 -25 -16 -14 -35 -25 -43 -25 -7 0 -13 -4 -13 -8
0 -4 -15 -16 -32 -27 -18 -10 -35 -21 -38 -24 -3 -4 -22 -17 -42 -31 -21 -14
-38 -29 -38 -33 0 -5 -4 -6 -9 -3 -4 3 -19 -6 -31 -19 -13 -14 -29 -25 -37
-25 -7 0 -13 -4 -13 -10 0 -5 -7 -10 -15 -10 -8 0 -15 -4 -15 -10 0 -5 -6 -10
-14 -10 -8 0 -17 -7 -20 -16 -3 -8 -10 -13 -15 -10 -5 4 -11 2 -13 -3 -3 -8
-171 -135 -228 -173 -14 -9 -35 -25 -47 -37 -12 -12 -25 -21 -28 -21 -3 0 -14
-8 -24 -17 -36 -33 -50 -43 -60 -43 -6 0 -14 -6 -18 -13 -4 -7 -32 -30 -60
-52 -29 -21 -53 -43 -53 -48 0 -4 -4 -6 -8 -3 -5 3 -16 -3 -25 -12 -8 -9 -22
-22 -29 -27 -63 -48 -114 -92 -121 -102 -4 -7 -12 -13 -18 -13 -8 0 -48 -31
-91 -72 -10 -10 -18 -15 -18 -12 0 3 -16 -10 -36 -30 -20 -20 -49 -44 -65 -53
-16 -10 -29 -24 -29 -32 0 -8 -3 -12 -6 -8 -6 5 -52 -31 -83 -65 -8 -10 -19
-18 -23 -18 -4 0 -24 -16 -44 -35 -19 -19 -40 -35 -45 -35 -6 0 -7 -4 -4 -10
3 -5 1 -10 -5 -10 -6 0 -17 -6 -24 -12 -7 -7 -46 -42 -86 -78 -40 -36 -84 -76
-97 -90 -12 -14 -23 -22 -23 -19 0 3 -26 -19 -59 -50 -185 -176 -223 -211
-231 -211 -6 0 -10 -7 -10 -16 0 -8 -3 -13 -7 -11 -5 3 -14 -1 -21 -9 -7 -8
-10 -14 -6 -14 4 0 -6 -10 -22 -22 -27 -22 -484 -475 -484 -481 0 -1 -43 -47
-96 -102 -53 -55 -103 -110 -111 -122 -9 -13 -19 -20 -24 -17 -5 3 -9 -1 -9
-8 0 -7 -14 -26 -30 -42 -17 -16 -30 -33 -30 -38 0 -4 -6 -8 -13 -8 -7 0 -21
-14 -30 -30 -10 -17 -22 -30 -28 -30 -5 0 -9 -7 -9 -16 0 -8 -5 -12 -10 -9 -6
3 -10 2 -10 -4 0 -5 -12 -23 -26 -38 -14 -15 -49 -55 -78 -87 -28 -32 -63 -72
-78 -87 -15 -16 -25 -29 -22 -29 3 0 -5 -10 -18 -23 -13 -13 -41 -45 -63 -71
-22 -27 -51 -61 -65 -76 -14 -16 -30 -34 -35 -42 -54 -68 -92 -116 -103 -128
-38 -45 -52 -64 -52 -72 0 -5 -4 -6 -10 -3 -5 3 -10 0 -10 -7 0 -7 -14 -27
-30 -45 -17 -18 -30 -37 -30 -42 0 -6 -5 -11 -10 -11 -6 0 -14 -8 -17 -17 -4
-10 -19 -30 -35 -45 -15 -15 -28 -30 -28 -34 0 -4 -8 -17 -18 -28 -16 -20 -16
-20 1 -6 38 29 127 121 127 130 0 6 4 9 8 8 5 -2 33 22 63 52 30 30 69 67 87
82 19 16 31 28 27 28 -4 0 7 12 25 26 17 15 64 59 105 98 41 40 75 71 75 68 0
-2 23 19 50 48 28 29 50 49 50 46 0 -3 24 18 53 47 29 28 77 72 106 97 29 25
68 59 86 75 18 17 57 50 86 75 29 25 66 57 81 72 15 14 28 24 28 20 0 -3 9 4
20 16 12 12 25 22 31 22 6 0 7 4 4 10 -3 6 -2 10 4 10 5 0 21 10 35 23 60 53
78 67 89 67 5 0 7 3 4 6 -3 4 11 20 33 35 38 28 58 44 103 83 12 10 38 30 57
45 41 31 77 61 96 79 8 7 14 11 14 9 0 -3 19 13 42 34 24 22 49 39 55 39 7 0
13 4 13 8 0 7 60 55 109 87 8 6 25 19 37 30 43 38 53 45 64 45 5 0 10 5 10 10
0 6 7 10 16 10 8 0 12 5 9 10 -3 6 0 10 8 10 8 0 22 9 32 20 10 11 24 20 31
20 7 0 17 6 21 14 4 7 24 23 43 35 19 11 31 21 25 21 -5 0 5 8 22 18 18 9 44
27 58 39 14 13 25 21 25 18 0 -5 29 18 55 43 8 6 17 12 20 12 4 0 25 14 46 31
21 17 39 27 39 23 0 -4 8 3 19 14 10 12 23 22 29 22 6 0 16 8 21 18 6 9 11 13
11 9 0 -8 19 6 78 54 6 5 12 7 12 3 0 -4 12 5 26 19 15 15 30 24 35 22 4 -3
11 0 16 7 11 17 69 58 83 58 5 0 10 5 10 10 0 6 7 10 15 10 8 0 15 5 15 10 0
6 7 10 15 10 8 0 15 5 15 10 0 6 5 10 11 10 6 0 25 11 43 25 18 14 36 25 40
25 4 0 16 9 28 20 12 10 24 17 28 15 5 -3 10 2 14 10 3 8 12 15 21 15 8 0 15
5 15 11 0 5 5 7 10 4 6 -3 13 1 16 9 3 9 10 13 15 10 5 -3 9 0 9 5 0 6 5 11
11 11 6 0 26 12 45 26 19 15 34 22 34 18 0 -5 4 -4 8 2 4 6 39 30 77 54 39 24
77 49 86 57 9 7 19 10 22 7 4 -4 9 0 13 9 3 9 19 19 35 22 16 4 29 10 29 15 0
4 14 13 30 20 17 7 30 17 30 22 0 5 5 6 10 3 6 -3 13 1 16 9 3 9 10 14 14 11
5 -3 14 0 22 7 7 7 31 22 53 33 22 11 46 26 53 33 7 6 19 12 27 12 7 0 15 7
19 15 3 8 13 15 22 15 9 0 28 9 44 20 15 11 30 17 34 13 3 -3 6 -1 6 5 0 7 7
12 16 12 8 0 12 5 9 10 -3 6 1 10 10 10 9 0 44 16 76 35 33 19 63 35 67 35 4
0 18 9 32 20 14 11 33 20 43 20 9 0 17 5 17 11 0 5 5 7 10 4 6 -3 10 -1 10 5
0 6 5 8 10 5 6 -3 10 -2 10 4 0 6 11 13 25 17 14 3 25 10 25 15 0 5 9 9 20 9
11 0 20 5 20 11 0 6 6 9 12 7 7 -3 21 4 32 14 11 10 28 18 37 18 10 0 21 5 24
11 8 11 55 33 68 31 4 -1 7 2 7 7 0 9 60 37 73 33 4 -1 7 2 7 7 0 5 16 15 35
22 19 7 35 17 35 23 0 5 3 7 6 3 3 -3 35 10 70 28 35 19 64 32 64 30 0 -3 9 3
20 12 10 9 29 18 42 20 12 2 25 8 29 15 4 6 11 8 17 4 5 -3 13 1 16 10 4 9 9
14 13 11 3 -4 25 5 48 18 24 13 46 21 49 18 3 -4 6 -1 6 6 0 7 5 9 10 6 6 -3
10 -1 10 4 0 6 3 10 8 9 4 -1 30 9 57 22 28 13 56 23 63 23 6 0 12 3 12 7 0 3
37 22 83 40 45 19 85 38 88 43 4 5 12 6 18 3 6 -4 11 -2 11 4 0 6 5 8 10 5 6
-3 10 -1 10 4 0 6 9 11 19 11 11 0 23 5 26 10 3 6 15 10 26 10 10 0 19 4 19
10 0 5 3 9 8 8 6 -1 34 8 82 29 8 3 17 7 20 8 3 0 27 11 54 23 27 12 53 22 58
22 5 0 20 7 33 16 14 9 25 13 25 9 0 -4 6 -3 13 2 6 5 41 20 77 33 36 13 68
29 72 34 4 6 8 7 8 2 0 -5 7 -3 15 4 8 7 15 10 15 7 0 -3 24 4 53 17 49 22
107 40 116 36 2 -1 7 3 11 10 4 6 17 12 28 13 12 1 22 5 22 10 0 4 4 6 9 2 5
-3 12 -1 16 5 3 5 15 10 26 10 10 0 19 5 19 11 0 5 5 7 10 4 6 -3 16 -3 23 2
6 4 17 8 22 9 6 1 24 8 40 15 17 6 35 13 40 15 6 1 37 12 70 23 33 12 67 23
76 25 8 2 32 11 53 20 21 9 42 13 47 10 5 -3 9 0 9 5 0 6 3 10 8 10 4 -1 10 0
15 1 4 1 10 3 15 5 4 1 19 7 35 13 27 12 70 23 95 24 6 1 12 5 12 10 0 4 3 7
8 6 9 -2 63 13 77 21 6 3 16 6 23 7 8 2 21 6 30 10 9 4 24 8 32 9 8 2 36 10
62 18 26 8 49 12 52 9 4 -3 6 -1 6 5 0 6 17 14 38 18 20 4 60 15 89 25 28 10
54 16 56 13 3 -2 15 1 27 7 12 6 29 13 39 15 10 2 41 10 69 19 29 8 52 12 52
9 0 -3 6 -1 13 5 6 5 26 12 43 15 17 3 41 10 54 17 18 10 21 10 14 -2 -6 -10
-5 -11 8 -1 8 7 18 10 21 6 4 -3 7 -2 7 3 0 5 8 10 18 11 9 1 44 9 77 18 33 9
69 17 80 18 11 2 25 5 30 9 6 3 26 9 46 12 20 3 47 10 60 15 13 5 27 9 32 10
4 0 8 1 10 2 2 1 47 7 75 11 6 1 12 4 12 8 0 4 11 6 25 5 14 -2 25 0 25 4 0 4
10 8 23 9 25 2 72 10 72 12 0 4 93 23 118 24 9 0 17 3 17 6 0 3 10 6 23 7 12
1 33 4 47 7 40 10 107 23 154 30 14 2 28 6 33 9 4 3 28 8 53 11 51 7 85 14 85
16 0 3 69 12 93 12 12 0 22 3 22 7 0 4 10 8 23 8 32 2 102 11 105 14 3 3 13 5
72 13 30 4 64 10 75 12 11 3 34 7 50 9 17 2 50 7 75 11 25 4 54 8 65 9 21 2
106 15 138 21 9 1 22 6 27 9 6 3 10 1 10 -6 0 -8 4 -8 13 -2 6 6 19 11 27 11
14 0 82 8 145 16 17 3 53 7 80 10 28 3 66 8 85 11 19 3 67 7 105 10 39 2 70 5
70 5 0 4 46 10 88 11 26 1 47 6 47 11 0 5 8 4 19 -1 10 -6 21 -8 25 -4 6 6
111 16 179 16 20 0 37 3 37 6 0 3 37 7 83 9 146 4 192 8 205 16 7 4 12 2 12
-4 0 -8 6 -7 21 1 15 8 19 8 15 0 -5 -8 0 -8 16 -3 13 5 40 8 61 7 42 -1 44
10 7 30 -78 42 -189 93 -194 88 -3 -4 -6 -1 -6 6 0 7 -6 11 -14 8 -8 -3 -17 1
-20 9 -3 8 -9 13 -13 12 -4 -1 -30 8 -58 21 -27 13 -66 30 -85 38 -19 9 -49
21 -65 29 -55 24 -90 37 -104 40 -8 1 -17 6 -20 11 -6 8 -27 15 -48 16 -7 0
-13 4 -13 9 0 4 -8 8 -18 8 -10 0 -22 3 -26 8 -4 4 -11 7 -14 7 -13 1 -177 67
-188 76 -6 5 -14 6 -17 3 -3 -3 -12 -2 -19 2 -7 5 -15 9 -18 10 -3 0 -12 3
-20 7 -73 28 -189 64 -194 60 -3 -4 -6 -1 -6 5 0 7 -3 11 -7 11 -5 -1 -10 -1
-13 1 -3 1 -16 4 -30 6 -13 3 -29 9 -34 14 -4 4 -15 6 -22 3 -8 -3 -14 1 -14
8 0 7 -2 10 -5 7 -3 -3 -43 6 -88 19 -101 30 -178 51 -209 57 -12 2 -36 9 -52
15 -16 7 -31 9 -34 7 -2 -3 -17 1 -33 10 -16 8 -29 12 -29 10 0 -3 -15 0 -32
5 -18 5 -44 11 -58 14 -52 10 -69 14 -106 24 -22 6 -51 11 -66 11 -16 0 -28 3
-28 8 0 4 -10 7 -22 8 -26 0 -76 9 -180 30 -28 6 -73 13 -123 19 -16 2 -43 6
-60 9 -106 19 -159 15 -255 -19z"/>
<path d="M10334 8142 c2 -4 -24 -8 -57 -9 -34 -1 -82 -4 -107 -7 -25 -3 -75
-7 -112 -8 -38 -2 -68 -6 -68 -10 0 -4 -14 -6 -30 -4 -17 2 -33 -1 -36 -5 -3
-5 -14 -4 -26 2 -15 8 -19 8 -13 -1 5 -8 0 -11 -16 -10 -13 1 -26 1 -29 0 -3
-1 -18 -3 -35 -5 -62 -6 -151 -16 -175 -20 -86 -12 -128 -18 -150 -20 -14 -2
-38 -5 -55 -8 -16 -3 -50 -8 -75 -11 -25 -3 -56 -9 -70 -12 -14 -3 -45 -7 -70
-9 -25 -2 -45 -4 -45 -5 0 -2 -22 -7 -70 -14 -80 -13 -101 -16 -130 -22 -16
-3 -48 -8 -70 -11 -22 -3 -41 -8 -42 -12 -2 -3 -21 -6 -43 -5 -22 0 -40 -2
-40 -6 0 -3 -10 -7 -22 -7 -26 -2 -63 -8 -163 -30 -38 -8 -80 -16 -92 -19 -37
-7 -66 -13 -93 -19 -14 -3 -38 -7 -55 -9 -16 -2 -43 -9 -58 -15 -16 -6 -33 -8
-38 -5 -6 3 -15 1 -22 -4 -7 -6 -30 -13 -52 -17 -62 -10 -80 -13 -80 -15 0 -2
-17 -6 -60 -15 -57 -13 -60 -13 -60 -15 0 -1 -10 -3 -22 -6 -13 -2 -33 -6 -45
-8 -13 -3 -23 -5 -23 -6 0 -1 -9 -3 -20 -5 -27 -5 -107 -26 -125 -33 -8 -3
-26 -7 -40 -9 -14 -2 -36 -8 -50 -13 -14 -5 -36 -12 -50 -14 -55 -11 -195 -50
-200 -55 -3 -3 -14 -7 -25 -8 -24 -3 -60 -11 -60 -13 0 -1 -9 -4 -20 -6 -35
-8 -40 -10 -62 -22 -17 -9 -22 -9 -26 1 -4 9 -6 9 -6 0 -1 -7 -11 -13 -24 -13
-13 0 -27 -4 -33 -9 -5 -5 -22 -12 -39 -14 -16 -3 -42 -10 -57 -16 -16 -6 -28
-8 -28 -5 0 4 -6 2 -12 -3 -14 -11 -68 -27 -80 -25 -5 1 -8 -2 -8 -7 0 -5 -8
-8 -17 -7 -9 2 -28 -3 -42 -10 -13 -7 -28 -11 -33 -8 -4 3 -8 1 -8 -4 0 -5 -6
-9 -12 -10 -18 -1 -47 -9 -93 -26 -22 -8 -48 -15 -57 -16 -10 0 -18 -4 -18 -9
0 -6 -9 -8 -20 -6 -11 2 -22 0 -25 -6 -4 -5 -15 -9 -26 -9 -10 0 -19 -5 -19
-11 0 -5 -4 -7 -10 -4 -5 3 -16 3 -22 -2 -25 -15 -137 -51 -142 -45 -4 3 -6 1
-6 -5 0 -5 -6 -10 -12 -10 -7 0 -43 -12 -80 -26 -36 -14 -69 -23 -72 -20 -3 4
-6 1 -6 -5 0 -7 -6 -12 -14 -12 -8 0 -27 -5 -43 -12 -15 -6 -30 -12 -33 -13
-3 -1 -13 -5 -22 -9 -9 -4 -22 -9 -30 -10 -7 -1 -23 -7 -34 -14 -12 -6 -24 -8
-28 -5 -3 3 -6 0 -6 -7 0 -7 -3 -11 -6 -7 -3 3 -30 -5 -60 -18 -30 -13 -58
-25 -62 -26 -4 -1 -20 -7 -37 -13 -16 -5 -33 -9 -37 -8 -5 1 -8 -3 -8 -8 0 -6
-9 -10 -20 -10 -11 0 -20 -4 -20 -9 0 -4 -8 -8 -17 -8 -10 0 -38 -9 -63 -21
-25 -11 -52 -22 -60 -24 -8 -2 -18 -7 -21 -11 -3 -5 -15 -10 -25 -12 -10 -2
-20 -4 -21 -5 -2 -2 -6 -3 -10 -5 -5 -1 -26 -10 -48 -20 -22 -10 -43 -19 -47
-19 -3 -1 -10 -4 -14 -8 -4 -5 -16 -8 -26 -8 -10 0 -18 -4 -18 -10 0 -5 -6
-10 -14 -10 -7 0 -49 -16 -92 -36 -135 -61 -149 -67 -156 -66 -5 1 -8 -3 -8
-10 0 -6 -2 -9 -6 -6 -3 3 -32 -7 -65 -23 -32 -16 -64 -29 -69 -29 -6 0 -10
-5 -10 -12 0 -6 -3 -9 -6 -6 -3 3 -42 -12 -87 -34 -45 -23 -88 -41 -94 -41 -7
0 -13 -4 -13 -8 0 -7 -74 -40 -86 -38 -4 0 -10 -3 -13 -8 -8 -11 -84 -48 -93
-45 -5 1 -8 -2 -8 -7 0 -7 -36 -22 -49 -20 -2 0 -7 -3 -10 -8 -3 -5 -37 -24
-76 -42 -38 -19 -73 -39 -77 -45 -4 -6 -8 -8 -8 -4 0 4 -23 -6 -50 -22 -28
-16 -50 -27 -50 -24 0 3 -7 -2 -16 -10 -8 -9 -20 -14 -25 -11 -5 4 -9 1 -9 -5
0 -6 -4 -8 -10 -5 -5 3 -10 1 -10 -4 0 -6 -6 -11 -14 -11 -7 0 -19 -7 -26 -15
-7 -8 -16 -12 -21 -9 -5 3 -12 -2 -15 -10 -3 -9 -10 -14 -14 -11 -4 3 -19 -4
-32 -15 -14 -11 -28 -16 -32 -13 -3 3 -6 1 -6 -6 0 -8 -7 -11 -15 -7 -8 3 -15
1 -15 -4 0 -10 -108 -70 -127 -70 -8 0 -16 -7 -19 -15 -4 -8 -12 -15 -20 -15
-8 0 -14 -5 -14 -12 0 -6 -3 -9 -6 -5 -4 3 -23 -5 -43 -18 -19 -14 -41 -25
-48 -25 -7 0 -13 -4 -13 -9 0 -5 -8 -11 -17 -15 -10 -3 -33 -15 -50 -26 -18
-11 -33 -17 -33 -15 0 3 -9 -4 -20 -15 -11 -11 -27 -20 -35 -20 -8 0 -15 -3
-15 -8 0 -4 -27 -23 -61 -42 -84 -49 -88 -51 -145 -87 -28 -18 -54 -33 -58
-33 -4 0 -16 -9 -28 -20 -12 -11 -27 -20 -34 -20 -6 0 -15 -7 -18 -16 -3 -8
-10 -13 -15 -10 -5 3 -20 -5 -34 -18 -14 -13 -28 -21 -31 -18 -3 3 -6 0 -6 -6
0 -7 -3 -11 -7 -10 -8 2 -209 -127 -231 -149 -8 -7 -18 -10 -24 -7 -7 4 -8 2
-4 -4 4 -7 1 -12 -8 -12 -9 0 -16 -4 -16 -10 0 -5 -7 -10 -15 -10 -8 0 -15 -5
-15 -11 0 -5 -5 -7 -10 -4 -6 3 -13 -1 -16 -9 -3 -9 -12 -16 -20 -16 -8 0 -14
-5 -14 -10 0 -6 -10 -15 -22 -20 -13 -5 -48 -27 -78 -50 -30 -22 -62 -43 -70
-47 -8 -4 -20 -12 -26 -17 -6 -6 -22 -18 -34 -26 -13 -8 -32 -23 -42 -32 -10
-10 -18 -15 -18 -11 0 4 -13 -6 -29 -21 -16 -15 -37 -29 -47 -31 -11 -1 -18
-8 -16 -14 1 -6 -5 -11 -13 -11 -9 0 -18 -7 -21 -15 -4 -8 -12 -15 -20 -15 -8
0 -14 -4 -14 -10 0 -5 -5 -10 -11 -10 -7 0 -20 -10 -30 -22 -11 -11 -19 -17
-19 -12 0 5 -6 2 -13 -7 -7 -8 -33 -30 -59 -48 -27 -17 -48 -37 -48 -42 0 -6
-4 -8 -9 -5 -4 3 -16 -3 -26 -14 -10 -11 -22 -20 -27 -20 -5 0 -19 -10 -31
-23 -12 -12 -58 -49 -102 -82 -44 -33 -85 -64 -91 -70 -6 -5 -30 -26 -54 -45
-23 -19 -51 -43 -61 -52 -11 -10 -19 -15 -19 -11 0 4 -14 -7 -30 -25 -17 -18
-30 -31 -30 -28 0 3 -8 -1 -17 -10 -10 -8 -34 -29 -53 -46 -31 -27 -32 -28 -5
-11 17 10 42 25 57 32 15 8 38 24 50 35 12 12 25 21 28 20 5 -1 8 1 103 60 31
20 59 36 62 36 3 0 14 8 25 18 11 9 23 16 25 14 3 -1 28 14 56 34 28 19 53 33
56 31 2 -3 18 8 36 24 17 16 39 29 49 29 10 0 18 5 18 11 0 5 5 7 10 4 6 -3
13 1 16 9 3 9 10 14 14 11 5 -3 13 2 18 11 5 9 12 16 15 16 16 0 47 11 47 17
0 3 15 12 32 20 18 8 35 17 38 20 7 9 39 27 90 52 25 12 56 31 69 41 13 10 27
15 32 12 5 -3 9 -1 9 4 0 5 8 12 18 15 17 6 72 37 82 47 3 3 12 6 20 8 8 2 20
8 26 13 24 19 143 77 148 72 3 -4 6 -2 6 4 0 10 82 54 96 52 4 0 10 3 13 8 3
5 38 24 76 43 39 19 73 38 76 43 3 4 16 9 27 10 12 1 22 4 22 7 0 6 51 30 64
29 5 0 12 3 15 9 7 10 198 104 221 108 8 2 16 8 18 13 2 6 10 11 17 11 7 0 37
12 67 27 51 27 58 29 77 32 5 0 17 8 25 17 12 12 16 12 16 2 0 -8 4 -7 11 5 5
9 15 17 20 17 6 0 30 9 55 20 24 11 65 30 92 41 26 12 49 22 52 21 3 0 14 5
25 11 11 6 23 10 28 9 4 -1 7 3 7 10 0 6 2 9 6 6 3 -3 32 7 65 23 32 16 61 29
64 29 2 0 16 5 32 12 15 6 31 12 35 12 3 1 10 4 14 9 4 4 16 7 26 7 10 0 18 3
18 8 0 7 63 32 88 34 6 1 12 5 12 10 0 4 6 8 14 8 7 0 33 8 57 19 42 18 79 32
89 36 3 1 19 7 35 14 17 7 38 14 49 17 10 2 25 9 34 16 8 7 16 12 16 10 1 -4
30 5 61 18 31 14 69 24 78 22 4 -1 7 2 7 6 0 5 6 9 13 9 20 2 81 27 89 38 4 6
8 7 8 3 0 -5 22 1 49 11 28 10 52 16 55 13 4 -3 6 0 6 6 0 7 3 11 8 11 4 -1 9
0 12 1 3 1 12 3 20 5 29 7 135 45 154 56 10 6 16 6 12 1 -3 -6 5 -5 19 1 14 7
25 16 25 20 0 5 4 6 9 3 4 -3 47 8 95 24 48 17 94 30 102 30 8 0 14 5 14 11 0
5 4 7 10 4 5 -3 18 -1 29 5 11 5 31 11 45 12 15 1 26 5 26 9 0 4 17 10 38 15
42 9 50 10 57 14 3 1 8 3 13 5 4 1 14 4 22 8 8 3 29 9 45 13 17 4 32 8 35 9
57 17 98 28 110 30 8 1 28 7 43 14 16 6 33 9 38 5 5 -3 9 -1 9 4 0 8 24 16 85
27 6 1 13 3 18 5 4 1 12 4 17 5 6 1 11 3 13 5 2 2 33 10 57 14 28 6 75 18 90
23 8 3 20 7 25 9 24 6 72 16 90 19 11 2 20 4 20 5 0 1 8 3 18 6 9 2 25 6 35 8
9 3 17 5 17 6 0 2 33 9 70 14 17 3 30 5 30 6 0 1 7 3 15 5 8 2 26 7 40 10 14
3 30 7 37 9 7 1 15 5 19 8 3 4 17 4 30 2 13 -2 24 -1 24 4 0 5 6 9 13 9 24 2
91 15 111 22 12 5 29 7 39 6 9 -2 17 1 17 6 0 6 6 9 13 7 6 -1 28 1 47 5 19 4
46 9 60 12 14 3 61 12 105 21 44 10 90 17 103 18 12 0 22 3 22 6 0 3 10 6 23
7 12 0 38 4 57 8 19 4 45 8 58 8 12 1 22 3 22 7 0 3 12 6 28 7 39 4 97 11 97
13 0 2 36 9 80 15 62 8 98 14 120 18 11 3 45 8 75 12 30 3 69 9 85 11 17 3 45
7 63 10 17 2 49 7 70 10 20 3 54 6 74 7 21 0 36 3 34 6 -2 3 12 7 32 8 21 1
62 4 92 8 30 3 73 8 95 10 22 2 40 4 40 5 0 1 20 4 45 6 25 2 68 6 95 9 28 3
73 7 100 9 28 2 50 5 50 6 0 1 20 3 45 5 25 1 90 6 145 10 55 5 120 9 145 9
38 1 51 7 87 41 23 22 60 56 83 75 69 60 133 116 176 154 23 20 44 36 47 36 3
0 17 10 30 23 55 51 75 67 82 67 4 0 18 11 31 25 13 14 27 25 33 25 5 0 11 3
13 8 2 4 21 21 43 38 126 96 173 131 195 146 14 9 37 27 52 40 44 38 81 63 90
60 4 -1 8 5 8 14 0 8 3 13 8 10 4 -2 25 11 46 30 21 19 41 34 45 34 4 0 16 8
27 18 10 10 42 33 69 52 28 19 52 37 55 40 8 8 65 53 95 75 53 38 137 105 134
106 -24 5 -68 6 -65 1z"/>
<path d="M8515 6641 c-3 -2 -28 -5 -57 -7 -29 -2 -78 -6 -108 -9 -30 -3 -82
-8 -115 -11 -33 -3 -76 -7 -95 -9 -19 -3 -55 -7 -80 -9 -25 -2 -63 -7 -85 -10
-60 -9 -148 -19 -167 -20 -10 0 -18 -4 -18 -8 0 -5 -9 -4 -20 2 -11 6 -20 7
-20 2 0 -5 -6 -9 -12 -9 -12 0 -56 -6 -148 -20 -19 -2 -46 -6 -60 -7 -14 -2
-34 -6 -45 -9 -11 -3 -40 -9 -65 -12 -42 -5 -127 -20 -176 -29 -12 -2 -37 -7
-55 -10 -19 -3 -45 -8 -59 -11 -14 -3 -39 -7 -57 -9 -18 -3 -37 -7 -43 -11 -5
-3 -24 -8 -42 -10 -18 -1 -55 -8 -81 -14 -27 -6 -53 -9 -58 -6 -5 4 -9 1 -9
-6 0 -6 -8 -9 -20 -6 -11 3 -20 0 -20 -6 0 -6 -3 -8 -6 -5 -3 3 -21 2 -41 -4
-42 -11 -70 -18 -98 -22 -11 -2 -40 -9 -65 -16 -25 -7 -54 -14 -65 -15 -11 -1
-20 -3 -20 -4 0 -2 -7 -4 -15 -6 -8 -2 -28 -6 -45 -10 -35 -7 -58 -13 -65 -15
-3 -1 -9 -3 -15 -5 -5 -1 -12 -3 -15 -4 -7 -3 -42 -11 -65 -15 -11 -2 -20 -4
-20 -5 0 -4 -49 -14 -72 -15 -13 -1 -23 -4 -23 -7 0 -7 -69 -24 -82 -21 -5 1
-8 -2 -8 -6 0 -7 -19 -12 -62 -15 -10 -1 -18 -6 -18 -11 0 -5 -2 -7 -6 -4 -3
3 -27 -3 -53 -13 -27 -10 -51 -15 -55 -12 -3 4 -6 1 -6 -5 0 -6 -7 -9 -15 -6
-8 4 -22 1 -30 -6 -8 -6 -19 -9 -25 -5 -5 3 -10 2 -10 -3 0 -5 -6 -9 -12 -10
-34 -3 -93 -22 -96 -32 -2 -5 -7 -8 -12 -5 -4 3 -50 -9 -101 -26 -52 -18 -100
-32 -106 -32 -7 0 -13 -3 -13 -7 0 -4 -6 -7 -12 -8 -19 -1 -40 -7 -73 -21 -16
-7 -34 -14 -40 -15 -26 -5 -91 -30 -101 -38 -7 -5 -16 -8 -20 -6 -5 1 -19 -3
-30 -10 -12 -6 -24 -8 -28 -5 -3 3 -6 1 -6 -5 0 -6 -6 -9 -14 -6 -8 3 -17 0
-21 -5 -3 -6 -11 -9 -16 -6 -5 4 -9 1 -9 -5 0 -6 -6 -10 -12 -8 -7 1 -22 -3
-33 -9 -11 -6 -23 -11 -28 -12 -4 0 -22 -7 -40 -14 -17 -8 -49 -19 -69 -26
-21 -7 -38 -17 -38 -21 0 -5 -7 -7 -15 -3 -9 3 -23 -1 -33 -9 -9 -8 -36 -20
-59 -26 -23 -7 -54 -19 -69 -27 -15 -8 -31 -12 -36 -9 -4 3 -8 1 -8 -4 0 -5
-18 -15 -40 -22 -22 -7 -40 -17 -40 -22 0 -5 -4 -7 -10 -3 -5 3 -17 1 -27 -5
-23 -13 -111 -50 -119 -49 -3 0 -15 -6 -27 -13 -30 -20 -140 -63 -150 -60 -5
1 -6 -1 -3 -6 3 -5 -13 -15 -34 -22 -22 -7 -40 -17 -40 -22 0 -4 -3 -7 -7 -6
-15 3 -63 -14 -63 -23 0 -5 -3 -8 -7 -7 -5 1 -44 -16 -88 -37 -44 -22 -83 -39
-87 -37 -5 1 -8 -3 -8 -10 0 -6 -3 -9 -6 -5 -3 3 -23 -5 -44 -18 -21 -13 -41
-21 -44 -18 -3 4 -6 -2 -6 -12 0 -14 3 -15 15 -5 8 7 15 9 15 5 0 -5 9 0 20
10 13 12 20 14 20 5 0 -9 4 -9 13 -3 9 8 122 50 157 58 3 1 12 4 20 8 34 13
216 70 228 70 6 0 12 5 12 10 0 6 3 8 6 4 3 -3 18 -1 33 5 26 10 53 17 81 23
8 1 22 5 30 8 22 9 115 38 131 41 8 2 21 6 29 9 8 3 29 9 45 13 37 9 43 11 53
14 4 2 12 4 17 5 6 1 17 4 25 8 8 3 35 10 60 16 25 7 53 14 63 16 9 3 26 7 37
10 11 3 30 8 43 11 12 3 28 6 35 6 6 1 12 5 12 10 0 5 4 7 8 4 5 -3 26 -1 47
5 48 14 75 20 100 24 11 2 21 4 23 5 1 2 7 4 12 5 6 1 11 3 13 5 1 1 11 3 22
5 11 2 31 6 45 9 14 3 34 8 45 10 11 3 52 12 90 21 39 8 79 17 90 19 11 2 34
6 50 10 92 20 129 27 148 29 9 1 17 4 17 7 0 3 15 6 33 7 17 2 44 3 59 4 15 1
26 5 24 8 -2 3 11 7 30 8 48 4 58 7 66 18 5 6 8 5 8 -3 0 -7 5 -10 12 -6 6 4
21 8 32 10 12 2 32 5 46 9 38 8 91 16 135 20 22 1 47 6 56 9 8 4 35 8 60 11
24 2 44 4 44 5 0 1 11 3 25 5 14 2 43 6 65 9 41 6 86 12 155 21 22 3 59 7 83
10 23 3 62 8 86 10 25 3 47 7 49 10 3 3 11 0 19 -6 8 -7 13 -8 13 -1 0 5 10
10 23 10 41 1 117 11 127 17 6 3 10 1 10 -5 0 -7 5 -8 13 -3 6 4 30 8 53 9 22
0 45 3 50 5 5 3 37 5 71 4 35 0 63 2 63 5 0 5 115 12 242 14 43 0 78 3 78 6 0
9 94 5 109 -4 9 -6 12 -5 7 2 -6 11 32 12 391 15 111 1 169 5 165 12 -3 5 1 5
9 -1 12 -10 35 -12 72 -5 4 0 7 9 7 20 0 24 119 261 131 261 6 0 8 4 5 9 -3 5
5 20 18 34 13 14 21 28 18 31 -3 3 1 6 8 6 7 0 11 3 7 6 -3 3 -2 11 4 18 5 6
23 29 39 51 16 22 33 45 38 50 4 6 8 12 8 15 -1 3 11 18 27 33 15 16 27 29 27
30 0 4 -111 2 -115 -2z"/>
<path d="M7796 5763 c-4 -4 -55 -8 -114 -10 -117 -2 -337 -11 -337 -13 0 -1
-38 -3 -85 -6 -160 -8 -187 -11 -197 -17 -6 -4 -14 -1 -16 5 -4 10 -6 10 -6 0
-1 -9 -6 -10 -20 -3 -10 6 -21 7 -25 4 -8 -8 -13 -9 -107 -17 -41 -4 -90 -9
-109 -11 -19 -3 -62 -7 -95 -10 -33 -2 -78 -7 -100 -10 -22 -3 -51 -7 -65 -8
-14 -2 -30 -5 -35 -8 -6 -2 -29 -4 -52 -4 -24 0 -43 -3 -43 -6 0 -3 -10 -5
-22 -4 -13 1 -27 0 -33 -4 -10 -5 -63 -11 -117 -13 -16 0 -28 -3 -28 -7 0 -4
-15 -8 -32 -9 -42 -3 -93 -9 -93 -12 0 -1 -11 -4 -25 -6 -151 -21 -175 -25
-200 -33 -14 -4 -35 -7 -47 -6 -13 1 -23 -2 -23 -8 0 -5 -6 -7 -12 -4 -7 2
-22 1 -33 -3 -11 -4 -42 -11 -69 -14 -27 -4 -52 -9 -56 -11 -3 -2 -25 -6 -50
-10 -25 -4 -47 -8 -51 -10 -3 -2 -19 -7 -35 -9 -16 -3 -40 -9 -54 -12 -14 -3
-33 -6 -42 -6 -10 1 -18 -3 -18 -8 0 -4 -8 -7 -17 -5 -10 1 -22 0 -28 -3 -5
-3 -16 -7 -25 -8 -8 -2 -35 -8 -60 -14 -25 -6 -56 -13 -70 -15 -14 -2 -26 -4
-27 -6 -2 -1 -6 -2 -10 -4 -5 -1 -20 -5 -34 -9 -14 -4 -33 -8 -42 -10 -30 -4
-28 -13 3 -11 16 1 33 4 36 8 4 3 16 2 27 -4 14 -8 18 -8 13 0 -5 7 7 11 36
12 58 2 83 5 102 12 9 4 16 1 16 -6 0 -8 3 -9 8 -1 4 6 25 12 47 13 22 1 61 3
87 4 27 1 48 4 48 7 0 3 15 6 33 6 107 4 149 8 153 16 3 4 13 4 23 -2 10 -5
21 -6 25 -3 6 6 40 9 201 16 33 2 66 6 73 10 6 5 12 4 12 -2 0 -6 11 -7 28 -2
15 3 66 7 114 6 49 0 88 2 88 5 0 3 119 5 265 5 170 0 265 4 265 10 0 6 3 6 8
0 4 -6 57 -11 127 -12 232 -2 375 -8 375 -15 0 -4 11 -3 24 2 13 5 27 6 30 3
4 -4 50 -8 103 -10 53 -2 102 -8 108 -13 6 -5 16 -5 24 -1 7 5 25 6 39 4 29
-4 65 -8 177 -17 83 -7 157 -14 205 -20 66 -8 125 -15 175 -22 28 -3 59 -7 70
-8 11 -1 26 -5 33 -9 7 -5 12 -3 12 3 0 6 5 8 13 3 36 -22 53 -1 32 41 -8 14
-11 26 -8 26 3 0 1 6 -5 13 -16 19 -41 131 -48 212 -7 91 -8 93 -38 90 -14 -2
-26 1 -26 7 0 7 -5 6 -14 -1 -10 -8 -16 -9 -21 -1 -3 6 -12 7 -18 3 -19 -12
-57 -11 -57 1 0 7 -3 7 -8 1 -9 -13 -122 -14 -122 -2 0 5 -7 3 -17 -4 -17 -14
-20 -14 -40 3 -8 6 -13 7 -13 1 0 -11 -29 -11 -46 0 -6 3 -14 3 -18 0z"/>
<path d="M1029 5363 c-13 -16 -12 -17 4 -4 16 13 21 21 13 21 -2 0 -10 -8 -17
-17z"/>
<path d="M3762 5309 c-14 -22 -7 -25 14 -5 8 8 11 17 6 20 -4 2 -13 -4 -20
-15z"/>
<path d="M7130 3861 c0 -7 -9 -9 -23 -6 l-23 6 -2 -138 c-1 -76 -2 -142 -3
-148 0 -5 1 -29 4 -52 2 -24 0 -43 -5 -43 -5 0 -6 -5 -2 -12 7 -11 8 -64 4
-123 -1 -11 0 -39 3 -62 2 -24 0 -43 -5 -43 -5 0 -6 -5 -2 -12 7 -11 8 -64 4
-123 -1 -11 0 -39 3 -62 2 -24 0 -43 -5 -43 -5 0 -6 -5 -2 -12 7 -11 8 -64 4
-123 -1 -11 0 -39 3 -62 2 -24 0 -43 -5 -43 -5 0 -6 -5 -2 -12 7 -11 8 -64 4
-123 -1 -11 0 -39 3 -62 2 -24 0 -43 -5 -43 -5 0 -6 -5 -2 -11 3 -6 8 -136 9
-288 2 -152 5 -283 7 -291 3 -8 8 -37 13 -65 4 -27 12 -56 17 -62 6 -7 7 -13
3 -13 -4 0 -2 -7 5 -15 7 -8 9 -15 4 -15 -4 0 -3 -5 4 -12 7 -7 12 -20 12 -30
0 -10 5 -18 10 -18 6 0 10 -9 10 -20 0 -11 5 -20 10 -20 6 0 10 -5 10 -11 0
-29 141 -179 169 -179 5 0 11 -4 13 -8 4 -11 94 -52 113 -52 8 0 15 -4 15 -8
0 -5 6 -9 13 -9 6 0 30 -4 52 -8 47 -9 194 -15 210 -9 9 4 10 30 6 119 -1 18
-8 20 -66 20 -36 -1 -65 2 -65 5 0 3 -10 6 -22 7 -49 2 -78 8 -78 15 0 4 -8 8
-18 8 -10 0 -23 5 -30 12 -7 7 -12 9 -12 4 0 -11 -91 55 -113 82 -10 12 -25
29 -33 36 -8 8 -14 19 -14 25 0 6 -4 11 -8 11 -6 0 -17 20 -37 70 -28 70 -31
80 -40 140 -4 24 -9 48 -11 52 -3 5 0 8 7 8 8 0 8 4 1 13 -7 8 -10 224 -10
639 l-1 627 147 0 c81 0 152 1 157 2 6 1 15 0 20 -1 18 -4 219 1 223 5 9 9 8
137 -1 142 -17 10 -297 9 -301 -2 -3 -7 -5 -7 -5 0 -1 6 -47 9 -121 8 l-120
-1 1 206 c0 114 0 212 0 218 -1 6 -17 10 -38 9 -21 -1 -44 2 -50 8 -9 6 -13 6
-13 -2z"/>
<path d="M2194 3469 c-2 -3 -21 -5 -44 -3 -22 1 -40 -1 -40 -5 0 -4 -14 -8
-32 -9 -17 -2 -37 -7 -43 -12 -7 -5 -15 -7 -18 -3 -4 3 -53 -17 -109 -45 -76
-38 -121 -69 -170 -116 -36 -35 -64 -67 -61 -70 4 -3 1 -6 -5 -6 -6 0 -14 -9
-17 -20 -13 -40 -24 -8 -24 68 0 42 0 100 0 127 l-1 50 -67 0 c-57 0 -70 -3
-80 -20 -6 -11 -9 -24 -5 -29 10 -17 8 -101 -3 -108 -6 -5 -5 -8 3 -8 9 0 10
-5 3 -19 -6 -10 -8 -20 -6 -23 11 -11 11 -68 1 -72 -7 -3 -6 -5 2 -5 10 -1 10
-6 2 -21 -6 -11 -7 -20 -2 -20 5 0 9 -7 9 -15 0 -8 -4 -15 -9 -15 -5 0 -6 -6
-1 -12 10 -17 10 -88 0 -88 -5 0 -5 -6 -1 -12 12 -19 12 -48 0 -48 -7 0 -8 -3
-1 -8 10 -6 11 -20 5 -39 -1 -5 -1 -12 0 -18 7 -36 5 -95 -4 -99 -8 -3 -8 -5
0 -5 10 -1 11 -58 0 -68 -3 -4 -1 -12 5 -19 6 -8 7 -14 0 -18 -6 -4 -8 -13 -5
-21 11 -27 10 -145 -1 -149 -5 -2 -4 -5 3 -5 9 -1 10 -6 3 -20 -6 -10 -8 -20
-6 -23 11 -11 11 -68 1 -72 -7 -3 -6 -5 2 -5 10 -1 10 -6 2 -21 -6 -11 -7 -20
-2 -20 5 0 9 -7 9 -15 0 -8 -4 -15 -9 -15 -5 0 -6 -6 -1 -12 10 -17 10 -39 1
-60 -5 -10 -4 -20 2 -23 8 -5 8 -11 1 -19 -6 -7 -8 -16 -5 -19 10 -9 11 -127
1 -127 -4 0 -5 -6 -1 -12 12 -19 12 -48 0 -48 -7 0 -8 -3 -1 -8 10 -6 11 -20
5 -39 -1 -5 -1 -12 0 -18 7 -36 5 -95 -4 -95 -7 0 -8 -3 -1 -8 12 -8 14 -92 2
-92 -5 0 -5 -6 -1 -12 12 -19 12 -48 0 -48 -7 0 -8 -3 -1 -8 10 -6 11 -20 5
-39 -1 -5 -1 -12 0 -18 7 -36 5 -95 -4 -95 -7 0 -8 -3 -1 -8 12 -8 13 -42 1
-60 -11 -18 24 -28 92 -27 l57 1 5 62 c3 38 1 62 -5 62 -7 0 -7 3 0 8 6 4 10
21 10 37 0 17 -4 33 -10 37 -7 5 -7 8 0 8 6 0 10 16 10 35 0 19 -4 35 -10 35
-7 0 -7 3 0 8 6 4 10 21 10 37 0 17 -4 33 -10 37 -7 5 -7 8 0 8 6 0 10 16 10
35 0 19 -4 35 -10 35 -7 0 -7 3 0 8 6 4 10 21 10 37 0 17 -4 33 -10 37 -7 5
-7 8 0 8 6 0 10 16 10 35 0 19 -4 35 -10 35 -7 0 -7 3 0 8 6 4 10 21 10 37 0
17 -4 33 -10 37 -7 5 -7 8 0 8 7 0 10 125 9 358 -1 196 1 361 4 367 3 5 7 25
9 44 2 20 7 38 11 41 4 3 8 14 10 25 6 43 40 115 54 115 5 0 6 5 3 10 -3 6 -1
10 4 10 6 0 11 6 11 13 0 16 104 127 120 127 6 0 8 5 5 10 -3 6 1 10 9 10 9 0
16 3 16 8 0 4 19 16 43 27 23 11 44 22 47 25 7 9 109 39 155 47 51 8 188 9
240 1 64 -9 198 -59 210 -78 4 -6 11 -8 16 -5 5 4 9 1 9 -4 0 -6 7 -11 15 -11
8 0 15 -4 15 -10 0 -5 7 -10 16 -10 8 0 12 -4 9 -10 -3 -5 -2 -10 3 -10 6 0
26 -16 45 -35 19 -19 33 -35 29 -35 -3 0 5 -9 18 -20 13 -11 20 -20 16 -20 -4
0 2 -10 14 -22 11 -12 20 -30 20 -40 0 -10 4 -18 9 -18 9 0 26 -48 23 -62 -1
-5 3 -8 9 -8 6 0 9 -6 6 -14 -3 -7 -2 -17 3 -22 5 -5 10 -27 11 -49 1 -22 5
-44 8 -50 3 -5 6 -319 6 -697 0 -378 4 -690 8 -694 12 -12 137 -11 138 1 1 5
3 327 4 715 1 388 4 707 5 710 1 3 2 8 1 13 0 4 2 7 7 7 4 0 8 10 8 23 3 31 9
55 17 63 4 4 7 16 7 26 0 10 8 26 18 36 9 10 19 27 20 37 2 11 8 22 13 23 5 2
9 10 9 18 0 8 4 14 9 14 5 0 13 9 16 20 4 11 11 18 16 15 5 -4 9 0 9 9 0 8 27
34 59 59 33 25 57 48 53 52 -4 4 -2 5 3 4 6 -2 37 9 69 25 33 16 67 30 75 31
9 2 16 4 16 5 0 2 12 5 55 14 14 4 55 8 92 10 37 3 72 7 78 11 5 3 10 2 10 -3
0 -8 23 -11 108 -16 12 0 22 -4 22 -8 0 -5 9 -8 20 -8 11 0 28 -4 38 -9 19
-11 53 -24 64 -25 4 -1 13 -7 20 -13 6 -7 18 -13 25 -13 7 0 13 -4 13 -10 0
-5 6 -10 13 -10 13 0 127 -103 127 -115 0 -4 8 -15 18 -24 10 -9 25 -31 33
-48 7 -18 17 -33 21 -33 5 0 8 -8 8 -18 0 -10 4 -22 8 -27 13 -15 34 -95 37
-136 1 -20 4 -40 7 -45 3 -5 4 -317 4 -692 -1 -446 2 -686 9 -690 6 -3 38 -7
73 -7 67 0 74 5 68 58 -2 15 1 27 6 27 5 0 6 5 3 10 -9 15 -12 110 -4 116 5 3
6 10 4 17 -10 27 -12 77 -2 77 6 0 5 5 -2 13 -8 10 -7 17 1 25 7 7 8 12 3 12
-11 0 -12 86 -2 96 3 3 4 11 1 17 -10 27 -11 77 -1 77 6 0 5 5 -2 13 -8 10 -7
17 1 25 7 7 8 12 2 12 -10 0 -11 86 -1 96 3 3 4 11 1 17 -10 28 -11 77 -1 77
7 0 7 4 -1 12 -8 8 -9 15 -1 25 7 7 8 13 3 13 -10 0 -11 86 -1 96 3 3 4 11 1
17 -10 28 -10 77 0 81 7 3 7 5 0 5 -11 1 -11 52 1 70 3 6 3 11 -2 11 -10 0 -9
52 1 68 4 7 3 12 -1 12 -10 0 -9 53 2 69 3 6 3 11 -2 11 -4 0 -8 35 -8 78 1
42 -4 83 -10 91 -5 8 -8 15 -6 15 7 2 -11 106 -20 112 -5 3 -9 15 -9 28 0 12
-5 27 -12 34 -7 7 -8 12 -2 12 5 0 5 3 -1 8 -5 4 -25 36 -44 71 -35 66 -46 81
-118 154 -60 60 -93 87 -107 87 -6 0 -18 9 -26 19 -7 11 -17 18 -21 15 -4 -2
-15 3 -23 12 -9 8 -16 13 -16 10 0 -3 -20 4 -45 15 -46 20 -66 27 -117 36 -16
3 -28 9 -28 14 0 6 -9 5 -20 -1 -11 -6 -20 -7 -20 -2 0 18 -210 16 -300 -4
-19 -4 -45 -8 -57 -8 -13 -1 -23 -5 -23 -9 0 -5 -4 -6 -9 -3 -5 4 -11 1 -13
-4 -2 -6 -13 -12 -26 -13 -12 0 -22 -5 -22 -9 0 -4 -7 -8 -15 -8 -8 0 -15 -4
-15 -10 0 -5 -7 -7 -15 -4 -8 4 -15 2 -15 -4 0 -5 -8 -13 -17 -16 -26 -9 -57
-29 -76 -48 -9 -9 -27 -25 -40 -35 -32 -25 -127 -144 -127 -159 0 -7 -4 -14
-8 -16 -5 -1 -15 -21 -24 -42 l-15 -40 -31 55 c-17 29 -34 59 -39 64 -4 6 -23
30 -42 55 -19 25 -56 63 -83 85 -27 22 -56 46 -63 53 -7 6 -16 12 -19 12 -3 0
-27 13 -53 28 -41 25 -132 61 -168 68 -5 1 -26 5 -45 9 -19 3 -55 8 -80 10
-25 2 -45 4 -45 5 0 5 -108 4 -111 -1z"/>
<path d="M5737 3474 c-1 -1 -33 -4 -72 -8 -76 -6 -119 -13 -150 -23 -22 -8
-30 -10 -62 -17 -12 -2 -39 -13 -60 -23 -21 -10 -40 -18 -43 -18 -14 -1 -120
-60 -120 -67 0 -4 -6 -8 -12 -8 -13 0 -48 -26 -95 -70 -13 -11 -23 -19 -23
-16 0 7 -56 -51 -105 -109 -22 -26 -48 -55 -57 -66 -10 -10 -18 -21 -18 -24
-1 -11 -36 -70 -52 -87 -10 -10 -16 -18 -14 -18 3 0 -11 -34 -30 -76 -19 -42
-35 -87 -36 -100 -1 -13 -7 -24 -12 -24 -5 0 -6 -3 -3 -7 4 -3 2 -12 -4 -20
-6 -7 -9 -13 -6 -13 3 0 0 -19 -7 -43 -7 -24 -12 -51 -10 -62 2 -11 -1 -24 -5
-30 -11 -13 -6 -310 6 -355 6 -19 10 -38 11 -42 1 -5 2 -9 3 -10 0 -2 3 -14 5
-28 2 -14 14 -50 25 -80 11 -30 21 -59 22 -65 1 -5 4 -12 7 -15 3 -3 22 -38
43 -79 43 -82 104 -171 118 -171 5 0 9 -5 9 -10 0 -14 108 -119 115 -112 3 3
5 -2 5 -11 0 -9 6 -17 13 -17 8 0 22 -9 32 -20 10 -11 24 -20 32 -20 7 0 13
-4 13 -10 0 -5 6 -10 14 -10 8 0 16 -3 18 -7 5 -13 125 -73 132 -66 3 4 6 1 6
-6 0 -7 5 -9 10 -6 6 3 10 1 10 -5 0 -7 7 -10 15 -6 8 3 15 2 15 -2 0 -12 182
-55 237 -56 17 -1 35 -4 38 -8 4 -4 16 -3 26 3 11 5 19 6 19 2 0 -5 17 -8 38
-6 98 5 180 13 207 18 17 4 38 7 48 8 9 1 17 5 17 10 0 4 4 6 8 3 10 -6 92 14
92 23 0 4 8 7 18 8 23 2 136 54 140 65 2 4 9 8 15 8 10 0 30 14 85 60 6 6 12
9 12 6 0 -2 19 15 43 39 74 75 142 159 142 177 0 5 5 12 10 16 14 10 94 174
98 202 2 8 6 21 10 28 9 13 9 13 -88 14 l-60 1 -28 -54 c-15 -30 -27 -55 -27
-57 3 -8 -74 -123 -103 -154 -19 -21 -33 -38 -31 -38 2 0 -8 -11 -22 -25 -14
-14 -27 -25 -30 -25 -3 0 -17 -11 -31 -24 -15 -14 -30 -23 -35 -20 -4 3 -8 1
-8 -4 0 -8 -120 -73 -142 -78 -5 -1 -10 -3 -13 -4 -3 -1 -9 -4 -15 -5 -5 -1
-11 -3 -12 -4 -2 -2 -14 -5 -28 -8 -39 -7 -55 -11 -55 -13 0 -4 -46 -10 -115
-16 -41 -3 -76 -7 -78 -9 -2 -2 -15 0 -28 5 -13 5 -26 6 -29 0 -3 -5 -18 -5
-35 0 -16 5 -41 7 -55 6 -14 -2 -25 0 -25 5 0 5 -7 6 -15 3 -8 -3 -20 -2 -27
2 -7 4 -19 9 -28 10 -28 5 -45 10 -57 17 -7 5 -17 5 -23 2 -5 -3 -10 -1 -10 6
0 7 -3 10 -6 6 -8 -7 -167 73 -177 90 -5 7 -12 11 -18 8 -5 -4 -9 -1 -9 4 0 6
-7 11 -16 11 -8 0 -12 5 -9 10 3 6 -1 10 -9 10 -9 0 -16 3 -16 8 0 4 -14 16
-30 27 -16 11 -30 25 -30 31 0 7 -6 14 -14 17 -17 7 -106 121 -106 136 0 6 -4
11 -10 11 -5 0 -10 6 -10 14 0 7 -7 19 -15 26 -9 7 -14 18 -12 24 2 5 -3 18
-12 28 -8 9 -16 25 -17 35 -2 9 -7 26 -13 38 -13 27 -34 95 -37 120 -1 11 -5
34 -9 50 -3 17 -8 61 -10 98 -3 56 -1 68 11 63 8 -3 14 -1 14 5 0 6 6 7 12 3
18 -11 48 -12 48 -2 0 5 6 6 12 2 18 -11 48 -12 48 -2 0 5 8 5 18 0 9 -4 26
-7 37 -6 21 2 69 4 98 4 9 0 24 0 32 0 8 0 22 0 30 0 8 0 22 0 30 0 8 0 22 0
30 0 8 0 22 0 30 0 8 0 22 0 30 0 8 0 22 0 30 0 8 0 22 0 30 0 8 0 22 0 30 0
8 0 22 0 30 0 8 0 22 0 30 0 8 0 22 0 30 0 8 0 22 0 30 0 8 0 22 0 30 0 8 0
22 0 30 0 43 0 76 0 88 0 6 1 24 -1 40 -3 15 -2 27 0 27 5 0 5 6 6 12 2 18
-11 48 -12 48 -2 0 5 6 6 12 2 18 -11 48 -12 48 -2 0 5 6 6 12 2 18 -11 48
-12 48 -2 0 5 6 6 12 2 18 -11 48 -12 48 -2 0 5 6 6 12 2 18 -11 48 -12 48 -2
0 5 6 6 12 2 18 -11 48 -12 48 -2 0 5 6 6 12 2 18 -11 48 -12 48 -2 0 5 6 6
12 2 18 -11 48 -12 48 -2 0 5 6 6 12 2 19 -12 48 -12 48 -1 0 6 5 6 13 0 6 -5
21 -8 32 -7 22 3 60 4 88 4 9 0 24 0 32 0 8 0 22 0 30 0 8 0 22 0 30 0 8 0 22
0 30 0 8 0 22 0 30 0 8 0 22 0 30 0 8 0 21 0 28 0 6 0 31 -1 55 -3 30 -2 41 1
38 9 -2 6 1 17 7 23 6 6 7 11 2 11 -6 0 -10 24 -11 53 0 28 -4 68 -8 87 -4 19
-8 44 -9 55 -2 11 -6 26 -10 33 -5 6 -6 12 -3 12 3 0 -1 15 -9 33 -7 17 -14
37 -15 42 -1 6 -6 19 -10 30 -4 11 -8 23 -9 28 0 4 -8 21 -16 37 -9 17 -13 30
-10 30 3 0 -3 10 -15 22 -11 12 -20 25 -20 29 0 14 -63 109 -72 109 -5 0 -6 5
-3 10 3 6 1 10 -4 10 -6 0 -11 5 -11 10 0 6 -10 21 -22 34 -13 13 -40 42 -60
65 -21 22 -40 41 -43 41 -4 0 -20 12 -35 28 -45 42 -58 52 -69 52 -6 0 -15 8
-20 18 -6 9 -11 13 -11 7 0 -7 -3 -7 -8 0 -9 13 -58 42 -104 61 -21 9 -38 20
-38 24 0 4 -10 7 -22 6 -13 -1 -25 2 -29 6 -8 11 -156 48 -206 51 -23 1 -43 6
-43 11 0 5 -6 3 -13 -3 -8 -6 -17 -8 -20 -4 -6 6 -54 11 -60 7z m98 -163 c37
0 80 -8 140 -26 33 -10 62 -19 65 -20 15 -2 126 -61 128 -67 2 -4 8 -8 14 -8
33 0 224 -174 254 -231 8 -16 19 -29 25 -29 6 0 7 -4 4 -10 -3 -5 -2 -10 3
-10 5 0 15 -15 22 -32 8 -18 20 -40 27 -50 8 -9 16 -22 17 -30 2 -7 8 -26 15
-43 14 -35 47 -140 55 -176 5 -21 2 -28 -14 -32 -11 -3 -20 -1 -20 5 0 5 -5 6
-12 2 -6 -4 -381 -7 -832 -7 l-821 0 3 49 c1 26 8 54 13 61 6 7 9 20 5 28 -3
8 -1 15 4 15 6 0 10 9 10 20 0 11 5 20 11 20 5 0 7 4 4 10 -3 5 0 20 7 32 7
13 11 26 10 31 -1 4 3 7 8 7 6 0 10 7 10 15 0 8 5 15 11 15 5 0 8 4 5 9 -4 5
6 23 20 40 14 17 23 31 19 31 -3 0 0 6 7 14 7 8 23 27 35 43 63 83 206 208
224 197 5 -3 9 -1 9 5 0 13 140 82 151 75 5 -3 9 0 9 5 0 6 3 10 8 9 4 0 14 1
22 5 15 5 43 12 110 24 19 4 68 7 107 7 42 1 73 5 73 11 0 6 4 5 8 -2 4 -7 16
-12 27 -12z"/>
<path d="M8997 3473 c-1 -1 -36 -4 -77 -6 -103 -7 -163 -17 -176 -28 -6 -5
-13 -7 -16 -4 -6 6 -127 -32 -143 -45 -7 -5 -15 -7 -18 -3 -4 3 -7 1 -7 -5 0
-7 -3 -11 -7 -10 -5 1 -18 -3 -30 -10 -13 -7 -23 -10 -23 -7 0 3 -8 -3 -18
-12 -10 -10 -29 -25 -42 -33 -53 -33 -190 -181 -190 -205 0 -7 -7 -18 -15 -25
-8 -7 -15 -17 -15 -22 0 -5 -7 -25 -16 -46 -18 -40 -25 -60 -26 -79 -1 -7 -5
-13 -9 -13 -5 0 -6 -6 -3 -13 3 -10 26 -13 79 -13 l74 0 22 58 c12 32 25 58
30 58 5 0 8 3 7 8 -3 14 25 61 33 56 5 -3 9 -1 9 5 0 13 67 81 110 112 47 33
140 82 140 73 0 -3 6 -1 13 5 8 6 24 13 38 15 13 3 25 5 27 7 1 1 5 2 10 3 4
1 16 5 27 8 64 21 312 28 410 12 28 -4 58 -8 68 -8 9 0 17 -3 17 -7 0 -4 6 -6
13 -5 21 2 117 -27 117 -36 0 -4 8 -8 19 -8 10 0 24 -7 31 -15 7 -8 16 -12 21
-9 5 3 9 0 9 -5 0 -6 7 -11 15 -11 8 0 20 -9 27 -20 7 -11 19 -20 27 -20 8 0
12 -3 8 -6 -3 -3 5 -16 19 -29 13 -12 24 -27 24 -34 0 -6 4 -11 8 -11 7 0 39
-78 50 -120 2 -8 5 -49 6 -90 2 -62 -2 -83 -22 -120 -32 -63 -67 -91 -172
-138 -37 -17 -160 -49 -218 -57 -18 -2 -37 -7 -42 -10 -6 -3 -10 0 -10 7 0 9
-3 10 -8 2 -4 -6 -22 -11 -40 -10 -17 1 -32 -2 -32 -6 0 -4 -10 -7 -22 -7 -13
0 -50 -2 -83 -6 -33 -4 -82 -8 -110 -10 -27 -2 -50 -4 -50 -5 0 -1 -11 -3 -25
-5 -72 -7 -128 -15 -150 -21 -14 -3 -39 -7 -56 -8 -17 -2 -35 -5 -40 -8 -5 -3
-22 -9 -39 -13 -44 -12 -45 -12 -50 -15 -3 -1 -9 -4 -15 -5 -5 -1 -11 -3 -12
-5 -4 -2 -41 -11 -55 -12 -7 -1 -13 -5 -13 -9 0 -4 -13 -10 -30 -14 -16 -4
-30 -10 -30 -15 0 -4 -10 -10 -23 -14 -13 -3 -35 -16 -50 -30 -14 -13 -27 -22
-29 -20 -2 2 -19 -12 -37 -31 -18 -19 -37 -35 -42 -35 -6 0 -7 -5 -4 -10 3 -6
-1 -13 -9 -16 -9 -3 -16 -12 -16 -20 0 -8 -4 -14 -10 -14 -5 0 -9 -3 -8 -7 1
-5 -6 -22 -15 -40 -9 -18 -18 -40 -20 -50 -1 -10 -6 -24 -10 -30 -5 -7 -5 -17
-2 -23 3 -5 2 -10 -3 -10 -5 0 -8 -16 -7 -36 1 -19 -1 -37 -4 -39 -5 -2 -6
-100 -1 -100 1 0 11 -80 13 -102 0 -7 4 -13 9 -13 5 0 7 -4 4 -9 -3 -4 1 -17
9 -27 8 -10 15 -26 15 -36 0 -9 4 -18 8 -20 4 -1 18 -20 31 -40 12 -21 27 -38
32 -38 5 0 9 -7 9 -15 0 -8 5 -15 10 -15 6 0 22 -12 36 -27 25 -27 46 -41 97
-66 15 -7 25 -16 22 -20 -3 -4 -2 -5 2 -2 3 3 17 -2 30 -10 13 -9 23 -13 23
-10 0 3 10 0 23 -7 12 -6 31 -13 41 -15 11 -2 24 -7 30 -12 6 -5 19 -7 29 -6
9 2 17 0 17 -5 0 -5 8 -7 18 -5 9 1 22 0 27 -4 16 -9 34 -11 143 -16 56 -2
107 -7 112 -10 6 -3 10 -2 10 2 0 5 19 9 43 9 43 0 132 10 177 19 71 14 126
29 136 36 6 5 14 6 17 2 4 -3 13 -1 20 5 8 7 17 9 20 5 4 -3 7 -2 7 3 0 5 20
16 46 23 25 7 52 20 60 28 7 8 14 12 14 8 0 -3 14 3 30 15 17 12 30 19 30 15
0 -3 10 3 22 14 11 11 26 18 31 14 6 -3 7 -1 3 6 -4 6 0 14 10 18 24 9 134
120 134 136 0 6 6 1 13 -13 7 -14 11 -27 7 -30 -8 -7 -7 -27 2 -36 4 -4 3 -13
-3 -21 -6 -7 -7 -13 -2 -13 5 0 9 -8 9 -17 2 -44 13 -102 23 -120 6 -11 7 -23
4 -27 -3 -3 -1 -6 6 -6 7 0 10 -4 7 -9 -11 -16 19 -26 74 -25 98 3 91 -1 74
40 -8 20 -13 39 -10 41 3 3 1 13 -3 22 -10 18 -20 71 -28 146 -2 28 -5 339 -6
693 0 353 -3 642 -6 642 -3 0 -7 19 -8 41 -2 23 -8 48 -14 55 -6 7 -8 18 -4
24 3 5 1 10 -5 10 -6 0 -8 5 -5 10 3 6 2 10 -2 10 -5 0 -16 17 -25 38 -9 20
-33 57 -54 81 -22 24 -47 53 -56 64 -10 11 -18 17 -18 13 0 -4 -15 4 -32 17
-45 34 -106 67 -123 67 -8 0 -15 5 -15 10 0 6 -3 9 -7 8 -5 -1 -33 6 -64 16
-79 24 -121 31 -224 41 -22 2 -40 4 -40 5 0 2 -127 5 -128 3z m681 -945 c2
-58 2 -62 2 -113 0 -19 0 -42 0 -50 0 -8 0 -22 0 -30 0 -8 0 -22 0 -30 0 -8 0
-21 -1 -27 0 -7 0 -24 0 -38 1 -14 0 -46 -2 -72 -2 -27 1 -48 6 -48 6 0 6 -5
0 -12 -5 -7 -8 -28 -8 -45 1 -18 -1 -33 -4 -33 -3 0 -7 -16 -7 -36 -1 -20 -5
-39 -10 -43 -5 -3 -10 -13 -12 -21 -4 -19 -43 -101 -57 -118 -5 -8 -21 -25
-34 -38 -13 -13 -20 -24 -16 -24 5 0 -6 -11 -25 -25 -19 -14 -36 -29 -39 -34
-3 -4 -31 -23 -61 -42 -30 -18 -57 -36 -60 -40 -3 -4 -14 -9 -25 -11 -11 -1
-23 -7 -26 -11 -3 -4 -19 -10 -35 -13 -16 -3 -31 -10 -35 -15 -3 -6 -10 -10
-15 -10 -5 0 -27 -4 -49 -10 -22 -6 -47 -13 -55 -14 -8 -2 -15 -4 -15 -5 0 -1
-18 -4 -39 -6 -21 -3 -47 -9 -56 -14 -11 -6 -21 -5 -28 2 -8 8 -12 8 -12 2 0
-7 -51 -11 -145 -11 -80 0 -145 3 -145 7 0 4 -6 7 -12 7 -46 3 -78 8 -78 13 0
4 -6 7 -13 7 -20 0 -137 47 -137 55 0 5 -7 8 -15 8 -8 0 -15 5 -15 10 0 6 -5
10 -11 10 -16 0 -89 67 -81 74 3 3 -3 6 -13 6 -10 0 -15 3 -12 6 4 4 -2 19
-12 33 -27 39 -43 86 -47 134 -1 23 -3 42 -4 42 -1 0 -3 8 -5 18 -2 9 0 17 3
17 4 0 7 15 8 33 2 54 9 92 18 99 5 3 11 13 12 22 2 18 36 65 47 66 4 0 7 6 7
14 0 8 9 17 19 21 11 3 22 13 25 21 3 8 10 12 16 9 5 -3 10 -2 10 2 0 5 21 20
48 33 26 14 48 28 50 32 2 4 9 5 17 2 7 -3 16 0 20 5 3 6 11 9 16 6 5 -4 9 -1
9 6 0 7 3 10 6 6 3 -3 23 1 44 8 21 7 41 11 44 8 3 -3 11 -1 18 5 12 9 38 15
125 27 15 2 42 6 58 9 35 6 139 17 205 21 25 1 45 4 45 5 0 1 20 3 45 5 67 5
134 15 210 31 14 3 36 7 50 10 14 3 48 13 75 22 28 9 53 15 58 14 4 -1 7 2 7
7 0 5 14 12 30 16 17 4 30 11 30 16 0 5 7 9 15 9 8 0 15 5 15 10 0 6 6 10 14
10 7 0 19 7 26 15 7 8 13 15 14 15 1 0 3 -24 4 -52z"/>
<path d="M10320 3200 c-8 -5 -18 -6 -22 -4 -4 3 -8 0 -8 -6 0 -7 -7 -9 -16 -6
-8 3 -12 2 -9 -3 3 -5 -3 -16 -13 -23 -24 -17 -45 -55 -37 -68 3 -6 3 -10 -2
-10 -7 0 -9 -54 -3 -70 1 -3 2 -8 1 -12 0 -5 4 -8 9 -8 6 0 10 -7 10 -15 0 -8
5 -15 10 -15 6 0 10 -7 10 -16 0 -8 5 -12 10 -9 6 3 10 3 10 -2 0 -28 144 -38
161 -11 5 7 9 10 9 6 0 -12 43 34 58 61 14 28 16 121 2 121 -5 0 -9 3 -8 8 5
15 -34 60 -62 72 -37 15 -93 20 -110 10z m73 -24 c15 -3 33 -11 40 -18 15 -14
41 -59 42 -70 0 -3 3 -10 7 -14 4 -4 3 -13 -3 -21 -9 -10 -8 -13 2 -13 11 0
11 -2 -1 -10 -8 -5 -11 -10 -7 -10 5 0 5 -6 0 -12 -4 -7 -8 -16 -8 -19 0 -15
-67 -60 -80 -55 -8 3 -15 2 -15 -2 0 -5 -16 -6 -35 -4 -19 2 -32 8 -29 13 3 5
-1 9 -8 9 -29 0 -68 69 -61 109 8 51 35 90 76 109 23 11 45 18 48 16 3 -1 17
-5 32 -8z"/>
<path d="M10305 3123 c1 -13 -2 -26 -7 -29 -5 -3 -4 -12 3 -20 9 -11 8 -14 -2
-14 -11 0 -11 -2 1 -10 9 -6 10 -10 3 -10 -8 0 -9 -9 -3 -30 6 -21 5 -30 -3
-30 -7 0 -6 -4 3 -10 9 -6 19 -5 28 2 11 9 11 13 0 19 -10 7 -10 9 1 9 10 0
11 3 2 14 -9 11 -8 15 5 20 20 8 27 2 48 -38 16 -31 46 -44 46 -20 0 8 -3 14
-7 14 -5 0 -13 11 -20 25 -9 21 -8 27 6 38 20 14 34 57 19 57 -5 0 -7 4 -3 9
7 12 -26 22 -80 25 -39 2 -43 0 -40 -21z m69 -6 c3 4 13 -2 20 -13 13 -17 12
-20 -6 -30 -12 -6 -29 -9 -39 -7 -23 6 -33 32 -14 39 8 4 12 11 8 18 -4 7 -1
7 9 -1 8 -7 18 -10 22 -6z"/>
</g>
</svg>
