<svg width="16" height="16" viewBox="0 0 16 16" fill="none" xmlns="http://www.w3.org/2000/svg">
<path fill-rule="evenodd" clip-rule="evenodd" d="M13.5236 2.78143L11.5314 0.753007C11.0613 0.274385 10.4002 0 9.71687 0H3.33173C2.48184 0 1.79057 0.667274 1.79057 1.48765V4.47531H1.54117C0.691277 4.47531 0 5.14258 0 5.96296V11.5185C0 12.3389 0.691277 13.0062 1.54117 13.0062H1.79057V14.5123C1.79057 15.3327 2.48184 16 3.33173 16H12.6683C13.5182 16 14.2094 15.3327 14.2094 14.5123V13.0062H14.4588C15.3087 13.0062 16 12.3389 16 11.5185V5.96296C16 5.14258 15.3087 4.47531 14.4588 4.47531H14.2094V4.44201C14.2094 3.8216 13.9658 3.23169 13.5236 2.78143ZM2.95444 1.48765C2.95444 1.28692 3.12378 1.12346 3.33173 1.12346H9.71687C10.0819 1.12346 10.4356 1.27025 10.6868 1.52597L12.679 3.5544C12.9155 3.79519 13.0456 4.11022 13.0456 4.44201V4.47531H2.95444V1.48765ZM14.8361 11.5185C14.8361 11.7192 14.6668 11.8827 14.4588 11.8827H1.54117C1.33322 11.8827 1.16387 11.7192 1.16387 11.5185V5.96296C1.16387 5.76223 1.33322 5.59876 1.54117 5.59876H14.4588C14.6668 5.59876 14.8361 5.76223 14.8361 5.96296V11.5185ZM13.0456 14.5123C13.0456 14.7131 12.8762 14.8765 12.6683 14.8765H3.33173C3.12378 14.8765 2.95444 14.7131 2.95444 14.5123V13.0062H13.0456V14.5123Z" fill="#3854B5"/>
<path d="M11.4685 10.5558C11.1557 10.5558 10.8874 10.5048 10.6635 10.4027C10.4429 10.3007 10.27 10.1509 10.1449 9.95331C10.0231 9.75576 9.95561 9.51048 9.94244 9.21745C9.93915 9.08246 9.9375 8.93759 9.9375 8.78285C9.9375 8.62811 9.93915 8.47995 9.94244 8.33837C9.95561 8.05193 10.0247 7.80994 10.1499 7.61239C10.275 7.41155 10.4495 7.2601 10.6734 7.15804C10.8972 7.05268 11.1623 7 11.4685 7C11.6858 7 11.8866 7.02799 12.071 7.08396C12.2554 7.13664 12.4167 7.21565 12.555 7.32101C12.6933 7.42308 12.8003 7.54819 12.876 7.69635C12.955 7.84122 12.9962 8.00584 12.9995 8.19021C13.0028 8.21984 12.9929 8.24454 12.9698 8.26429C12.9501 8.28405 12.9254 8.29392 12.8957 8.29392H12.229C12.1862 8.29392 12.1533 8.28569 12.1303 8.26923C12.1072 8.24948 12.0875 8.21491 12.071 8.16552C12.0249 7.99102 11.9492 7.87249 11.8438 7.80994C11.7418 7.74409 11.615 7.71116 11.4635 7.71116C11.2825 7.71116 11.1392 7.7622 11.0339 7.86426C10.9285 7.96304 10.8709 8.1293 10.861 8.36307C10.8511 8.63304 10.8511 8.90961 10.861 9.19276C10.8709 9.42652 10.9285 9.59443 11.0339 9.6965C11.1392 9.79527 11.2825 9.84466 11.4635 9.84466C11.615 9.84466 11.7434 9.81173 11.8488 9.74589C11.9541 9.68004 12.0282 9.56151 12.071 9.3903C12.0842 9.34092 12.1023 9.30799 12.1253 9.29153C12.1517 9.27178 12.1862 9.2619 12.229 9.2619H12.8957C12.9254 9.2619 12.9501 9.27178 12.9698 9.29153C12.9929 9.31128 13.0028 9.33598 12.9995 9.36561C12.9962 9.54999 12.955 9.71625 12.876 9.86441C12.8003 10.0093 12.6933 10.1344 12.555 10.2397C12.4167 10.3418 12.2554 10.4208 12.071 10.4768C11.8866 10.5295 11.6858 10.5558 11.4685 10.5558Z" fill="#3854B5"/>
<path d="M7.94779 10.5558C7.64489 10.5558 7.3815 10.5064 7.15761 10.4077C6.93373 10.3089 6.75923 10.1607 6.63411 9.96319C6.509 9.76235 6.43986 9.51212 6.42669 9.21251C6.4234 9.07094 6.42175 8.92936 6.42175 8.78779C6.42175 8.64621 6.4234 8.50299 6.42669 8.35813C6.43986 8.06181 6.509 7.81323 6.63411 7.61239C6.76252 7.40826 6.93866 7.25516 7.16255 7.1531C7.38643 7.05103 7.64818 7 7.94779 7C8.24411 7 8.50421 7.05103 8.7281 7.1531C8.95528 7.25516 9.13307 7.40826 9.26147 7.61239C9.38988 7.81323 9.45902 8.06181 9.4689 8.35813C9.47548 8.50299 9.47877 8.64621 9.47877 8.78779C9.47877 8.92936 9.47548 9.07094 9.4689 9.21251C9.45573 9.51212 9.38658 9.76235 9.26147 9.96319C9.13636 10.1607 8.96186 10.3089 8.73798 10.4077C8.51409 10.5064 8.2507 10.5558 7.94779 10.5558ZM7.94779 9.84466C8.12229 9.84466 8.26387 9.79198 8.37252 9.68662C8.48446 9.58126 8.54372 9.41335 8.55031 9.18288C8.55689 9.03801 8.56019 8.90138 8.56019 8.77297C8.56019 8.64457 8.55689 8.51122 8.55031 8.37294C8.54372 8.2182 8.51409 8.09309 8.46141 7.99761C8.41203 7.89883 8.34288 7.8264 8.25399 7.78031C8.16509 7.73421 8.06303 7.71116 7.94779 7.71116C7.83585 7.71116 7.73543 7.73421 7.64654 7.78031C7.55764 7.8264 7.48685 7.89883 7.43417 7.99761C7.3815 8.09309 7.35186 8.2182 7.34528 8.37294C7.34199 8.51122 7.34034 8.64457 7.34034 8.77297C7.34034 8.90138 7.34199 9.03801 7.34528 9.18288C7.35516 9.41335 7.41442 9.58126 7.52307 9.68662C7.63172 9.79198 7.77329 9.84466 7.94779 9.84466Z" fill="#3854B5"/>
<path d="M3.12347 10.5064C3.08725 10.5064 3.05762 10.4949 3.03457 10.4719C3.01152 10.4488 3 10.4192 3 10.383V7.17284C3 7.13663 3.01152 7.107 3.03457 7.08395C3.05762 7.0609 3.08725 7.04938 3.12347 7.04938H4.40751C4.73017 7.04938 5.00509 7.10206 5.23227 7.20741C5.45944 7.30948 5.63394 7.46093 5.75576 7.66177C5.87758 7.85931 5.94343 8.1046 5.95331 8.39763C5.9566 8.54249 5.95825 8.66925 5.95825 8.7779C5.95825 8.88655 5.9566 9.01166 5.95331 9.15324C5.94014 9.45943 5.87429 9.71295 5.75576 9.91379C5.64053 10.1146 5.47097 10.2644 5.24708 10.3632C5.02649 10.4587 4.75486 10.5064 4.43221 10.5064H3.12347ZM3.88402 9.79526H4.40751C4.54909 9.79526 4.66597 9.77386 4.75816 9.73106C4.85364 9.68497 4.92442 9.61418 4.97052 9.5187C5.0199 9.42322 5.04624 9.29811 5.04954 9.14336C5.05612 9.04788 5.05941 8.96228 5.05941 8.88655C5.06271 8.81083 5.06271 8.7351 5.05941 8.65938C5.05941 8.58365 5.05612 8.49969 5.04954 8.4075C5.04295 8.18362 4.98369 8.02064 4.87175 7.91858C4.7631 7.81322 4.60012 7.76054 4.38282 7.76054H3.88402V9.79526Z" fill="#3854B5"/>
</svg>
