<svg width="16" height="16" viewBox="0 0 16 16" fill="none" xmlns="http://www.w3.org/2000/svg">
<path fill-rule="evenodd" clip-rule="evenodd" d="M1.67901 0H14.321C15.2483 0 16 0.751719 16 1.67901V14.321C16 15.2483 15.2483 16 14.321 16H1.67901C0.751721 16 0 15.2483 0 14.321V1.67901C0 0.751721 0.751719 0 1.67901 0ZM1.67901 1.08642C1.35173 1.08642 1.08642 1.35173 1.08642 1.67901V11.2065L3.43935 8.85355C4.02513 8.26777 4.97488 8.26777 5.56067 8.85356L6.64645 9.93934C6.84172 10.1346 7.1583 10.1346 7.35356 9.93934L10.9393 6.35355C11.5251 5.76777 12.4749 5.76777 13.0607 6.35356L14.9136 8.20647V1.67901C14.9136 1.35173 14.6483 1.08642 14.321 1.08642H1.67901ZM1.08642 14.321V12.6207L4.14645 9.56066C4.34172 9.3654 4.6583 9.3654 4.85356 9.56066L5.93935 10.6464C6.52513 11.2322 7.47488 11.2322 8.06067 10.6464L11.6465 7.06066C11.8417 6.8654 12.1583 6.8654 12.3536 7.06066L14.9136 9.62068V14.321C14.9136 14.6483 14.6483 14.9136 14.321 14.9136H1.67901C1.35173 14.9136 1.08642 14.6483 1.08642 14.321ZM6 5C6 5.55228 5.55228 6 5 6C4.44772 6 4 5.55228 4 5C4 4.44772 4.44772 4 5 4C5.55228 4 6 4.44772 6 5ZM7 5C7 6.10457 6.10457 7 5 7C3.89543 7 3 6.10457 3 5C3 3.89543 3.89543 3 5 3C6.10457 3 7 3.89543 7 5Z" fill="#3854B5"/>
</svg>
