<svg width="16" height="16" viewBox="0 0 16 16" fill="none" xmlns="http://www.w3.org/2000/svg">
<g clip-path="url(#clip0_3998_3137)">
<path fill-rule="evenodd" clip-rule="evenodd" d="M13.5236 2.78143L11.5314 0.753007C11.0613 0.274385 10.4002 0 9.71687 0H3.33173C2.48184 0 1.79057 0.667274 1.79057 1.48765V4.47531H1.54117C0.691277 4.47531 0 5.14258 0 5.96296V11.5185C0 12.3389 0.691277 13.0062 1.54117 13.0062H1.79057V14.5123C1.79057 15.3327 2.48184 16 3.33173 16H12.6683C13.5182 16 14.2094 15.3327 14.2094 14.5123V13.0062H14.4588C15.3087 13.0062 16 12.3389 16 11.5185V5.96296C16 5.14258 15.3087 4.47531 14.4588 4.47531H14.2094V4.44201C14.2094 3.8216 13.9658 3.23169 13.5236 2.78143ZM2.95444 1.48765C2.95444 1.28692 3.12378 1.12346 3.33173 1.12346H9.71687C10.0819 1.12346 10.4356 1.27025 10.6868 1.52597L12.679 3.5544C12.9155 3.79519 13.0456 4.11022 13.0456 4.44201V4.47531H2.95444V1.48765ZM14.8361 11.5185C14.8361 11.7192 14.6668 11.8827 14.4588 11.8827H1.54117C1.33322 11.8827 1.16387 11.7192 1.16387 11.5185V5.96296C1.16387 5.76223 1.33322 5.59876 1.54117 5.59876H14.4588C14.6668 5.59876 14.8361 5.76223 14.8361 5.96296V11.5185ZM13.0456 14.5123C13.0456 14.7131 12.8762 14.8765 12.6683 14.8765H3.33173C3.12378 14.8765 2.95444 14.7131 2.95444 14.5123V13.0062H13.0456V14.5123Z" fill="#3854B5"/>
</g>
<path d="M10.4495 10.6811C10.4109 10.6811 10.3793 10.6688 10.3548 10.6443C10.3303 10.6198 10.318 10.5882 10.318 10.5496V7.13147C10.318 7.0929 10.3303 7.06135 10.3548 7.03681C10.3793 7.01227 10.4109 7 10.4495 7H12.8632C12.9018 7 12.9333 7.01227 12.9579 7.03681C12.9859 7.06135 12.9999 7.0929 12.9999 7.13147V7.6626C12.9999 7.70116 12.9859 7.73272 12.9579 7.75726C12.9333 7.7818 12.9018 7.79407 12.8632 7.79407H11.2435V8.5671H12.758C12.7966 8.5671 12.8282 8.58112 12.8527 8.60917C12.8807 8.63371 12.8948 8.66526 12.8948 8.70383V9.2297C12.8948 9.26476 12.8807 9.29631 12.8527 9.32436C12.8282 9.3489 12.7966 9.36117 12.758 9.36117H11.2435V10.5496C11.2435 10.5882 11.2313 10.6198 11.2067 10.6443C11.1822 10.6688 11.1506 10.6811 11.1121 10.6811H10.4495Z" fill="#3854B5"/>
<path d="M6.68518 10.6811C6.64662 10.6811 6.61506 10.6688 6.59052 10.6443C6.56598 10.6198 6.55371 10.5882 6.55371 10.5496V7.13147C6.55371 7.0929 6.56598 7.06135 6.59052 7.03681C6.61506 7.01227 6.64662 7 6.68518 7H8.05245C8.39602 7 8.68875 7.05609 8.93066 7.16828C9.17256 7.27696 9.35836 7.43823 9.48808 7.65208C9.61779 7.86243 9.68791 8.12361 9.69843 8.43563C9.70193 8.58989 9.70369 8.72486 9.70369 8.84055C9.70369 8.95625 9.70193 9.08947 9.69843 9.24022C9.68441 9.56626 9.61429 9.83621 9.48808 10.0501C9.36538 10.2639 9.18483 10.4234 8.94643 10.5286C8.71154 10.6303 8.42231 10.6811 8.07874 10.6811H6.68518ZM7.49502 9.92385H8.05245C8.2032 9.92385 8.32765 9.90106 8.42582 9.85549C8.52749 9.80641 8.60286 9.73103 8.65194 9.62936C8.70453 9.52769 8.73258 9.39447 8.73608 9.2297C8.74309 9.12803 8.7466 9.03688 8.7466 8.95625C8.75011 8.87561 8.75011 8.79498 8.7466 8.71434C8.7466 8.63371 8.74309 8.54431 8.73608 8.44615C8.72907 8.20775 8.66597 8.03422 8.54677 7.92554C8.43108 7.81335 8.25754 7.75726 8.02615 7.75726H7.49502V9.92385Z" fill="#3854B5"/>
<path d="M3.13147 10.6811C3.0929 10.6811 3.06135 10.6688 3.03681 10.6443C3.01227 10.6198 3 10.5882 3 10.5496V7.13147C3 7.0929 3.01227 7.06135 3.03681 7.03681C3.06135 7.01227 3.0929 7 3.13147 7H4.60391C4.89489 7 5.14731 7.04558 5.36117 7.13673C5.57853 7.22437 5.74681 7.35759 5.86601 7.53639C5.98871 7.71519 6.05006 7.94131 6.05006 8.21477C6.05006 8.48471 5.98871 8.70733 5.86601 8.88262C5.74681 9.05791 5.57853 9.18763 5.36117 9.27177C5.14731 9.35591 4.89489 9.39798 4.60391 9.39798H3.97812V10.5496C3.97812 10.5882 3.9641 10.6198 3.93605 10.6443C3.91151 10.6688 3.87996 10.6811 3.8414 10.6811H3.13147ZM3.96235 8.67228H4.57762C4.72837 8.67228 4.84757 8.63371 4.93521 8.55658C5.02636 8.47945 5.07194 8.36201 5.07194 8.20425C5.07194 8.07103 5.03337 7.95884 4.95625 7.86769C4.87912 7.77654 4.75291 7.73096 4.57762 7.73096H3.96235V8.67228Z" fill="#3854B5"/>
<defs>
<clipPath id="clip0_3998_3137">
<rect width="16" height="16" fill="white"/>
</clipPath>
</defs>
</svg>
