<svg width="16" height="16" viewBox="0 0 16 16" fill="none" xmlns="http://www.w3.org/2000/svg">
<g clip-path="url(#clip0_3998_3149)">
<path fill-rule="evenodd" clip-rule="evenodd" d="M13.5236 2.78143L11.5314 0.753007C11.0613 0.274385 10.4002 0 9.71687 0H3.33173C2.48184 0 1.79057 0.667274 1.79057 1.48765V4.47531H1.54117C0.691277 4.47531 0 5.14258 0 5.96296V11.5185C0 12.3389 0.691277 13.0062 1.54117 13.0062H1.79057V14.5123C1.79057 15.3327 2.48184 16 3.33173 16H12.6683C13.5182 16 14.2094 15.3327 14.2094 14.5123V13.0062H14.4588C15.3087 13.0062 16 12.3389 16 11.5185V5.96296C16 5.14258 15.3087 4.47531 14.4588 4.47531H14.2094V4.44201C14.2094 3.8216 13.9658 3.23169 13.5236 2.78143ZM2.95444 1.48765C2.95444 1.28692 3.12378 1.12346 3.33173 1.12346H9.71687C10.0819 1.12346 10.4356 1.27025 10.6868 1.52597L12.679 3.5544C12.9155 3.79519 13.0456 4.11022 13.0456 4.44201V4.47531H2.95444V1.48765ZM14.8361 11.5185C14.8361 11.7192 14.6668 11.8827 14.4588 11.8827H1.54117C1.33322 11.8827 1.16387 11.7192 1.16387 11.5185V5.96296C1.16387 5.76223 1.33322 5.59876 1.54117 5.59876H14.4588C14.6668 5.59876 14.8361 5.76223 14.8361 5.96296V11.5185ZM13.0456 14.5123C13.0456 14.7131 12.8762 14.8765 12.6683 14.8765H3.33173C3.12378 14.8765 2.95444 14.7131 2.95444 14.5123V13.0062H13.0456V14.5123Z" fill="#3854B5"/>
<path d="M11.4226 10.7734C11.0732 10.7734 10.7832 10.7244 10.5526 10.6266C10.322 10.5253 10.1473 10.3943 10.0285 10.2336C9.90972 10.0728 9.84683 9.90164 9.83984 9.71996C9.83984 9.69201 9.85033 9.66755 9.87129 9.64659C9.89575 9.62213 9.9237 9.60991 9.95514 9.60991H10.6155C10.6644 9.60991 10.7011 9.61864 10.7255 9.63611C10.7535 9.65358 10.7779 9.67629 10.7989 9.70424C10.8269 9.75665 10.8653 9.80731 10.9142 9.85622C10.9666 9.90514 11.033 9.94532 11.1134 9.97676C11.1972 10.0047 11.3003 10.0187 11.4226 10.0187C11.6252 10.0187 11.7772 9.98724 11.8785 9.92435C11.9833 9.86146 12.0357 9.77586 12.0357 9.66755C12.0357 9.59069 12.0078 9.5278 11.9519 9.47889C11.896 9.42648 11.8051 9.38106 11.6794 9.34263C11.5571 9.3007 11.3929 9.25877 11.1867 9.21685C10.9212 9.16095 10.6941 9.08932 10.5054 9.00198C10.3202 8.91114 10.1787 8.79409 10.0809 8.65084C9.98309 8.5041 9.93418 8.32242 9.93418 8.1058C9.93418 7.89268 9.99357 7.70226 10.1124 7.53456C10.2346 7.36685 10.4041 7.23583 10.6207 7.1415C10.8373 7.04717 11.0941 7 11.3911 7C11.6322 7 11.8436 7.03144 12.0252 7.09433C12.2104 7.15722 12.3659 7.24108 12.4917 7.34589C12.6175 7.45071 12.7118 7.56251 12.7747 7.6813C12.8411 7.7966 12.876 7.91015 12.8795 8.02195C12.8795 8.0499 12.869 8.07611 12.848 8.10056C12.8271 8.12153 12.8009 8.13201 12.7694 8.13201H12.0777C12.0392 8.13201 12.006 8.12502 11.9781 8.11104C11.9501 8.09707 11.9257 8.07436 11.9047 8.04291C11.8837 7.96605 11.8278 7.89967 11.737 7.84376C11.6497 7.78437 11.5344 7.75467 11.3911 7.75467C11.2374 7.75467 11.1168 7.78262 11.0295 7.83852C10.9456 7.89093 10.9037 7.97304 10.9037 8.08484C10.9037 8.15472 10.9264 8.21586 10.9719 8.26827C11.0208 8.32068 11.0994 8.3661 11.2077 8.40453C11.3195 8.44296 11.4715 8.48314 11.6636 8.52507C11.9816 8.58446 12.2384 8.65958 12.434 8.75042C12.6297 8.83776 12.7729 8.95306 12.8638 9.09631C12.9546 9.23606 13 9.4125 13 9.62563C13 9.86321 12.9319 10.0693 12.7956 10.244C12.6629 10.4152 12.4777 10.5463 12.2401 10.6371C12.0025 10.7279 11.73 10.7734 11.4226 10.7734Z" fill="#3854B5"/>
<path d="M7.05851 10.7209C7.02008 10.7209 6.98863 10.7087 6.96418 10.6842C6.93972 10.6598 6.92749 10.6283 6.92749 10.5899V7.18339C6.92749 7.14496 6.93972 7.11351 6.96418 7.08905C6.98863 7.0646 7.02008 7.05237 7.05851 7.05237H7.75029C7.78523 7.05237 7.81493 7.0646 7.83939 7.08905C7.86734 7.11351 7.88131 7.14496 7.88131 7.18339V9.92955H9.46403C9.50246 9.92955 9.5339 9.94353 9.55836 9.97148C9.58631 9.99594 9.60029 10.0274 9.60029 10.0658V10.5899C9.60029 10.6283 9.58631 10.6598 9.55836 10.6842C9.5339 10.7087 9.50246 10.7209 9.46403 10.7209H7.05851Z" fill="#3854B5"/>
<path d="M3.1153 10.7209C3.08385 10.7209 3.0559 10.7104 3.03144 10.6895C3.01048 10.665 3 10.6388 3 10.6109C3 10.6004 3.00175 10.5899 3.00524 10.5794C3.00873 10.5689 3.01398 10.5584 3.02096 10.548L4.16345 8.84995L3.10482 7.22531C3.09433 7.20435 3.08909 7.18339 3.08909 7.16242C3.08909 7.13447 3.09957 7.11002 3.12054 7.08905C3.1415 7.0646 3.1677 7.05237 3.19915 7.05237H3.95906C4.01147 7.05237 4.05165 7.06634 4.0796 7.09429C4.10755 7.11875 4.12677 7.14146 4.13725 7.16242L4.76614 8.11625L5.40027 7.16242C5.41425 7.14146 5.43521 7.11875 5.46316 7.09429C5.49112 7.06634 5.53129 7.05237 5.5837 7.05237H6.30169C6.33313 7.05237 6.35934 7.0646 6.3803 7.08905C6.40476 7.11002 6.41699 7.13447 6.41699 7.16242C6.41699 7.18688 6.41 7.20784 6.39602 7.22531L5.33214 8.84471L6.48512 10.548C6.4921 10.5584 6.4956 10.5689 6.4956 10.5794C6.49909 10.5899 6.50084 10.6004 6.50084 10.6109C6.50084 10.6388 6.49036 10.665 6.46939 10.6895C6.44843 10.7104 6.42223 10.7209 6.39078 10.7209H5.60991C5.5575 10.7209 5.51557 10.7087 5.48413 10.6842C5.45618 10.6563 5.43696 10.6336 5.42648 10.6161L4.72946 9.60987L4.04816 10.6161C4.03767 10.6336 4.01846 10.6563 3.99051 10.6842C3.96256 10.7087 3.92238 10.7209 3.86997 10.7209H3.1153Z" fill="#3854B5"/>
</g>
<defs>
<clipPath id="clip0_3998_3149">
<rect width="16" height="16" fill="white"/>
</clipPath>
</defs>
</svg>
